<svg xmlns="http://www.w3.org/2000/svg" role="img" aria-labelledby="logoTitle" viewBox="0 0 1123 645">
<title id="logoTitle">Logo AGS Digital</title>
<defs>
  <clipPath id="agsOnlyClip">
    <rect x="0" y="0" width="1123" height="430"/>
  </clipPath>
  <linearGradient id="digitalFill" x1="0" y1="430" x2="0" y2="580" gradientUnits="userSpaceOnUse">
    <stop offset="0" stop-color="#ffffff"/>
    <stop offset="0.45" stop-color="#eaf5ff"/>
    <stop offset="1" stop-color="#74b3fb"/>
  </linearGradient>
  <filter id="digitalShadow" x="210" y="398" width="680" height="215" filterUnits="userSpaceOnUse" color-interpolation-filters="sRGB">
    <feDropShadow dx="9" dy="13" stdDeviation="5" flood-color="#020407" flood-opacity="0.72"/>
  </filter>
</defs>
<g id="ags-vector" clip-path="url(#agsOnlyClip)">
<path fill="#20479f" stroke="#20479f" d="m624.5 529 2.5 7 9.5 5 24 1 3-1h4.5v-7l-11-.5 12-.5v9.5l-.5.5h-30q-9.2-1.7-13.5-8.5zm-276 5-2 3-18 6h-22q-10.6-1.9-17.5-7.5l1.5.5 9 4 10 2h17l13-3zm197 0 .5 4.5-3 12-7.5 9.5-1.5-.5-1.5 2.5-13 5q-1.5-2.5-3 1l-14 2h-2l-21-1-7-1-1.5-1.5 3.5-1.5q1 3 6 2l2.5-1q-1 3 2 2l-1-2.5 10-2-7.5-.5-3.5 1q1.4-3.7-4.5-2h-2l-3-1-2.5 1q1.3-3-2.5-2l-7.5-3 1 4 6 2.5-.5 1.5 2-1 .5 1.5-1.5 1.5-4-2-5.5-2v-8h2.5l17 6h24l11-3 8.5-6.5q5.2-5.3 4.5-16.5l1.5 4.5-1 4 1 3-3 1.5-2 3.5v2l-1.5 1.5-1 2 5-1q1.5 3.5 3 1l4.5-2.5q-1.1-3.3 1.5-2.5l3-1 1.5 1.5h1l2-4-4.5-2.5-2.5 1 .5-2q1.5 2.5 3-1l3.5 1.5.5 1.5.5-2.5-.5-1.5q3 .5 1.5-6.5z" opacity=".996"/>
<path fill="#eff6fc" stroke="#eff6fc" d="M279.5 41h98l1.5 1.5 38 77 78 149 20 32 19.5 19.5q16.1 12.9 39 19l11 2h26l20-4 23-10q13.9-7.6 23.5-19.5l6-9-132-.5q11-38.3 26.5-73h164l1-1h25l6.5 14.5 6 26v29l-3 18-9 24Q755.5 359 736.5 376q-23 20.5-54 33l-28 9-27 5h-9v-1h9l22-4 37-12q35.2-15.3 59.5-41.5l16-23-6 5q-11.4 16.6-26.5 29.5l-29 19-17 8h-2l-29 10-30 5-2-1-4 2-38 1-1-1-23-1-23-5-23-8-6-4-9-3-3-3H488q1.3-3-2.5-2l-15-11-21.5-20.5-24-34-25-42-1-4.5q-2.7 1.1-2-1.5l-2-1 11 23 24 40q14.9 22.6 34.5 40.5 35.7 32.3 95.5 40.5l-6.5.5-30-7-23-9q-27.3-12.7-46.5-33.5l-20-24-24-38-40-76-44-90.5q-2.7-1.1-2 1.5l-108 197-49.5 84.5h-100l-.5-1.5zM293 184l-6 10-3 1-12 21-2 1-11 17-25 30-2 2-5 3-3 4-6 3-2 4-8 4-2 2-4 3-5-1-1 2-11 2-4 4-1-1-4 1-1-1-3 3-4-3-8 2q-3-1-1-2l-3-1-1-2q1-4-2-3v2h-2l-52 94-22 35 1 1h85l28-52 11-17 2-7-5-5-2 1-1-3q4-3 13-2l3-2 81-148zm71 14q-3 1-1 3l2 1-1 2 33 66 23 42 19 30 16 20q21 24 52 39l30 10 32 5h42l1-1 24-2 25-6 18-6 19-9 29-20q18-15 31-36l11-26 3-17v-9l-1-1 1-3-2-1-1 4-7 5q0 5-3 7l-2 2q-3 5-9 5l-1 4-3 1q-3 1-2-2l-6 2-5 8-4-1-2 4-4-2-1 3-4 2-2-1h-3l-10 5-2 1q1-3-3-2h-2q-7 1-8-1l2-5-1-3q2-2 0-3l-6 4-3 3-2 3-5 4q-3-1-2 2l-12 8-16 7-17 5-14 2h-21l-1-1-2 1q-7 0-10-3l-3 1-7-2q-2-4-3-1l-16-7-2 1 5 2 2 3q4-2 3 2l2-1q2 4 10 3l4 3 2-1 13 4h6l1 2-2 3q-2 3-3-1-3 3-9 2l-2 1q-1-3 2-2 1-3-3-2l-1 4-6-1 1-2-3 2-8-1-5-3-4 3-1-2q-8 1-11-2l-6 1h-2l-15-2-7-3h-2v-1l-1-1-1 3-3-3-10-3-4-2q-3 1-2-2l-4-3-4 1-1-2-4-6q1-4-1-3-3-1-1-2l-3-2 1-4-4-3-3-4-2-3-8-3-2-3-3-1-14-17-3 1-1-1-6-6-14-19-3-2-1-4-10-11-1-4-3-2-6-11q1-4-2-3l-6-11-4-3v-2zm204 77-6 15h117l-11-4h-7l-7-2h-16l-7-2h-8l-1 1-14-1-8-2-2 1-6-1-2 1-13-1zm-8 19-3 1v1h96l-21-1-1-1zm-355 59-17 26-21 41q-2 5-12 3h-2l-2 1-1-1h-8l-5 1-3-1-3 1-5-1-3 1-5-1h-2l-6 1-2-1-7 1-3-1h-2l-2 1-6-1q-11-2-17 2l2 1h24l5 1h8l1-1 7 1h2l5-1h2l6 1 33-1 27-45 14-27z" opacity=".992"/>
<path fill="#eff6fc" stroke="#eff6fc" d="m902.5 42 49 1 25 4 25 7q37.3 14.2 63.5 39.5 1.1 3.3-1.5 2.5l-33 34-1.5 1.5-8 6.5-19.5 22-19-11-20-7-35-7-22-1-3 1h-20l-30 6-20 9-9.5 8.5-3 6v6q2.8 8.7 9.5 13.5l16 9 23 7 39 7 27 3 50 11 29 13q15.9 9.1 27.5 22.5 13.7 14.8 20 37l3 15v20l-4 20-6 14q-10 18-25.5 30.5l-30 18-34 12-42 7-55 1-1-1h-13l-22.5-3.5 6.5-.5 7 2 24 1 1 1h37l1-1h14l1-1 17-1 41-10 31-14 22.5-16q-1.1-2.7 1.5-2l16.5-22.5-2-1q-6 13.5-17.5 21.5l-18.5 12q1.1 2.7-1.5 2l-20 11-34 11h-2l-3-1-11 4-24 2-1 1-46 1-1-1h-14l-1-1-24-2-28-6-30-11-20.5-11-1.5-3-2.5-1.5.5-2.5 25 15 39 13 40 6 52 1 1-1h15l33-5 28-8q33.8-12.2 55.5-36.5l13-22 4-14 1-17-1-1-1-16-4-9q2.3-1.2-.5-2.5l-1.5 3.5 1 2-2 12-7.5 11.5-7 4-2-1-4.5 2q1.5 3.8-1.5 3l-10.5 6.5-1.5 2.5-2.5-1.5 1-2.5-3 1.5-.5 3.5-2-1-2 1-2-3-3 4-2.5-.5 1-2.5q-3.7-1.5-3 1.5l.5 1.5-3-2q-1.3-2.2-2.5.5l1 2q-1.5 3-3 0l2-7-1-3 1-4q-2.8-3-2-8.5l-2 .5v9q-3.5 10-11.5 15.5l-17 10-17 5-13 2h-2l-14 1-2-1-2 1h-24l-1-1-2 1-3-1h-7l-7-2h-2l-16-2-21-7-18-9-21.5-14-3.5 9-.5-1.5 5-15.5 29.5 17 30 11 32 6 35 1 1-1 18-1 13-3q16.3-4.4 27.5-13l5-8.5v-8l-7.5-8.5-9-5-19-6-27-5h-7l-15-3h-7l-49-7-22-5-21-7-3.5-2.5-8-35-4-12-3.5-4.5-19-2-4 1-3-1q-1.8 2.8-3.5-1.5l-8-22-2-24 3-17 9-22q13.7-22.8 33.5-39.5 22.1-18.4 51-30l36-11zM1049 93l-6 6-7 3-12 9h-3l-9 6-11 2h-2q-8-1-11 2l-2-1h-17l-8-2-3 1-12-2h-23l-1-1-34 2-13 2-27 8-14 9 1 2 17-7 36-6h36l27 4 29 8 17 9 5-1 19-19q-1-3 2-2l16-18 9-8 2-4h2zm4 9-24 23-15 16-2 2-3 1-7 9h-3l-21-11-14-4h-2l-25-6-22-1-1-1-27 1-15 2-17 4-10 4v1l22-6h6l6-2h14l1-1 36 1 27 5 27 9 18 10 36-37 2-2 2-3 6-5 7-8zm-308 70-1 7 3 19 6 15h16l6 2 9 14 9 27 6 5 12 6 14 4 20 4 61 7 34 6 20 6 20 12 3 6 2 1-1-3q-1-4 2-3 1-3-1-2l-3-4-15-12-14-6-30-9-22-3h-2l-10-2-28-1-13-4-2 1-14-4h-2l-25-10-2-2-7-5-9-14 1-3-4-9-3-3q-6-8-15-13-3 1-2-2l-7-4-7-9zm51 96 2 2 29 9 17 2 5 2 45 5 7 2 17 1 5 2 24 4 8 3h2l-27-9h-6l-6-2-20-2-21-4h-10l-21-3-11-3h-7l-4-2-8-1-8-4zM602.5 43h41l39 8q38.2 12.3 65.5 35.5-34.3 33-64 69.5l-14.5-8-20-7-17-3-30-1-20 3-23 7q-26.8 12.2-45.5 32.5T484.5 228L443 152.5l-2-7q11.7-21.3 28.5-37.5l1.5-1.5q25.7-26.3 60.5-43.5l16-7 22-7zM730 89l-8 4-5 5-7 2-22 16-14 7-11 2-16-1-1-1h-14l-1-1h-12l-1 1-3-1-1 1h-13l-22 3-22 8-17 8-15 13-5 3h-3l-10 8q-3-1-2 2l-23 10-11-6-11-12-1-8-4-7q1-3-2-2l-3 7 2 8 17 34 12 19 2 1 12-22 15-19 14-12 2-4h3l24-15 18-7 23-5 20-1h2l29 3 17 5 17 8h3l38-42 3-2 4-6 6-3zm-12 24-1 1-2 2-15 13-16 20h-3l-27-12-20-3h-21l-1-1-14 1-18 4q-4-1-3 2l21-4h29l20 3q20 5 36 15l32-37 3-1zM325.5 264l2.5 1.5 74 122-150 .5 47-81.5zM293 339l-6 6-20 33q-3 5-10 6l-1 2h140l-6-3-6 1-1-1H270l-4-1 124-1-3-3-20-29-3-7-3-3-2 3q-4 1-3-1h-1v3h-5l-1 3q-6 0-7-3l-3 2-3-1h-2l-7-1-2 1-9-2-2 1-4-2h-7l-1 2-6-1v-1q1-5-3-3Z" opacity=".992"/>
<path fill="#eff6fc" stroke="#eff6fc" d="m764.5 362-1.5 2.5-18 23 .5 1.5-3-1-3 4 40 20 20 7 19.5 4.5-3.5.5q-44.9-10.6-78.5-32.5l5-3.5q-1.1-2.7 1.5-2zM349 436h30.5l.5.5V546h-25.5l-3.5-3.5-1.5-4.5-10 6-17 3h-9l-1-1h-9l-10-3q-9.6-3.9-15.5-11.5-8.5-10.5-7-31 2.7-14.8 12.5-22.5 7.9-6.6 20-9l28-1 17.5 4zm4 23v16l1 3h-5l-6-3-16-3q-10-2-14 2l-3-1-8 3-2-1 1 3h-1l-3-1 1 2-2-2-9 5q-9 7-12 20v13l5 14 11 9 18 6 24-1h2l9-3 6-5h4v7l2 1h21v-38l-1-3-11 3h-8l-2 2v6l-3 8-9 8-11 3h-12l-12-5q-8-4-10-13v-11l2-7 8-8 12-4 18 1 9 4 9 11 19-2 1 1v-29l-2 7q-2 4-3 1l-3 1-2-1q-2 2-3-1l-3 1-5-5 1-3-1-4 1-5zm-26 28-1 1h-8l-7 3q-7 4-9 13-1 12 4 17 4 5 13 7h17l7-3 7-9v-16l-2-4-8-7zm459-48h31.5l.5.5V546h-31v-84.5l-1-2zm28 21-2 6-2-1-5 1-3 2 1-2-2-1-5 3-4-5-1 35 13-3h8l1 3-19 7-2-1-2 10v29h25v-29l-1-3 1-2-1-1zm-195-14 33 .5-1 1V470h24v20h-24v29.5l1 5 3.5 3.5 2 1h12l3.5-1v18h-19.5l-1 1h-9l-11-2-9.5-6.5-4-10V490h-13v-20h13zm21 26-9 2-9 5q-8 0-11-4l-2 12h13l1 2v30l-1 1 1 12 2 4 5 4 11 4h25l1-1h3v-11l-5 1-11-2-6-6v-30l-1-1 1-2 1-5h21v-12h-17l-1 1zm-162.5-4h22l12 3 11 6 .5-2.5.5-4.5h26l-.5 1.5v73q-2.5 13.5-12.5 19.5-9.3 5.7-22 8l-30 1-18-3-11.5-5.5v-16l1.5-.5q6.8 5.7 17 8l29 1 13-5 4.5-4.5 3-9-1-3 1-2.5-11.5 7-10 3h-24l-17-6-8.5-7.5-7-14-1-16q2.9-15.6 13.5-23.5 8-6 20-8Zm11.5 4-12 4-2-2q-2 3-3 1-3-1-2 2l-2-1-8 5q-8 6-11 18-3 20 6 29l11 8 13 4h8l1 1 18-2 13-7q1-4 3-1l2-1 2 6-1 9-3 6-10 7-15 3-20-1-16-6-3 1 1 9 11 4 13 2h26l6-1 14-4 8-5q6-6 9-16v-32h-5l-15 4q-7 8-19 11h-18l-9-4q-7-4-9-11-2-13 3-18 5-8 16-10h14l12 3q7 5 10 14l1 8 1-3q4-1 2 4l10-3h5l1-2v-21l-1-1 1-6-1-3-5 2-13-1 1 3-2 6-7-2-13-8zm7 15q-2 3-8 1l-6 3-7 9q-2 13 4 18l7 4 8 2h9l12-4q6-3 7-11 1-9-3-13l-8-7zm216.5-19h26l12 2q12 3 18.5 11.5l5 13V546h-20.5l-3.5-3.5q1-4.5-1.5-5.5l-4 4-10 4-13 2h-11l-16-3-10.5-7.5q-3.8-4.7-4-13l3-10 5.5-5.5 11-5 12-2 36.5-1q1.4-8.4-4.5-11l-8-3h-26q-10.4 1.6-17 7h-3l.5-1.5v-16l1.5-1.5 10-4zm13.5 4-1 1h-10q-4 3-12 2-3 1-1 3 1 2-3 1v-1l-2-1-3 7-1 3 1 1 12-5h35l5 3 5 6 2 9v2l-1 1-40 1-11 2-9 4-8 10q-1 9 2 13l6 5 15 5 25-1 7-2 11-7h2l1 8 2 1h16v-37l-2-13-3-7-13-10-12-2-3-1-3 1zm-295.5-3 3.5.5V546h-32.5l-.5-1.5 1-2v-2l-1-2V470h28.5zm-25.5 4v69l-1 1h27v-10l-1-1v-57q-1-3-2-1zm159-3h31v76h-29.5l-1.5-1.5 1-1v-14l-1-3zm5 4-1 7v62h24l-1-67-1-2-1 1h-12z" opacity=".992"/>
<path fill="#eff6fc" stroke="#eff6fc" d="M716.5 513h33l1.5 1.5v9l-6.5 6.5-14 4h-14l-10.5-4.5-2-7 6.5-7.5z" opacity=".992"/>
<path fill="#a3cbf9" stroke="#a3cbf9" d="m729.5 89 3.5.5-6 3.5-4.5 6-2.5 1.5-38.5 42.5h-3l-17-8-17-5-29-3h-2l-20 1-23 5-18 7-24 15H526l-2.5 4-13.5 11.5-15 19-12.5 22.5-1.5-1.5-12-19-17-34-2-8 3-6.5q2.7-1.1 2 1.5l4 7 1 8 10.5 12.5 11 6 23.5-10q-1.1-2.7 1.5-2l10-8h3l5-3 15-13 17-8 22-8 22-3h13l1-1 3 1 1-1h12l1 1h14l1 1 16 1 11-2 14-7 22-16 7-2 5-5zm319 4 3.5 1.5-2 .5-2.5 4-8.5 7.5-16 18.5q-2.7-1.1-2 1.5l-19.5 19.5-5 1-17-9-29-8-27-4h-36l-36 6-17 7-1-2 14-9 27-8 13-2 34-2 1 1h23l12 2 3-1 8 2h17l2 1q3.6-2.9 11-2h2l11-2 9-6h3l12-9 7-3z" opacity=".992"/>
<path fill="#a3cbf9" stroke="#a3cbf9" d="m1063.5 96-19 20 3-5-5.5 4.5-2.5 3.5-1.5 1.5-9 9 .5 1.5-1-1-7.5 7.5.5 1.5-1-1-16.5 16.5 1 2q-1.7-1.6-3.5 1.5l-2-2-16-8-10-3-1.5.5.5-1.5-16-5-27-5-36-1-1 1h-14l-6 2h-6l-26 8 1-2 13-5 17-4 15-2 27-1 1 1 22 1 25 6h2l14 4 21 11h3l7.5-9 3-1.5 1.5-1.5 15-16 24-23 3-1-3.5 4.5.5 1.5zm-346 17 .5 2.5-3 1.5-32.5 37q-15-10.5-36-15l-20-3h-29l-20.5 4q-1.2-3 2.5-2l18-4 14-1 1 1h21l20 3 27 12h3l16.5-20 15-13.5 1.5-1.5zm27 59 5.5 14.5 6.5 9.5 7.5 4q-1.1 2.7 1.5 2 9.4 4.6 15.5 12.5l3 3 4 9-1 3 9 14.5 7 4.5 1.5 2.5 25 10h2l14 4 2-1 13 4 28 1 10 2h2l22 3 30 9 14 6 15.5 11.5 2.5 4.5q2.6-.7 1.5 2-3-1.2-2 2.5l2 5.5-2-.5q2.5-1.5-1-3l-3.5-5.5-20-12-20-6-34-6-61-7-20-4-14-4-12-6-5.5-5.5-9-27-9.5-13.5-6-2H753l-6-15.5-3-19zm-451 11-.5 1.5L212 334l-3.5 2q-8.6-.9-12.5 2l.5 3 2-1 5.5 4.5-2 7-7.5 11.5.5-1.5 1-3-4.5 3.5-6.5 3-8.5 10-5 3-11 3-7 6-8.5 2q1.1 2.7-1.5 2l-6 4-15 6-2-1q-3.3 2.7-10 2l-9 4-8 1-2-1-7.5 4.5.5 1.5-1.5 1.5q-3.1 1.8-1.5 3.5l-2.5 1.5.5 1.5h83l1.5-.5-1.5 1.5H77l54-92.5 20-37.5 2-.5-.5-1.5q3.8-1.2 2.5 2.5l1 2.5 3 .5q-2.2 1.2.5 2.5l8-2 4 3 3-3 1 1 4-1 1 1 4-4 11.5-2 .5-2 5 1 4.5-3.5 1.5-1.5 8.5-4 1.5-4 6.5-3.5 2.5-3.5 5.5-3.5 1.5-1.5 25.5-30.5 10.5-16.5 2.5-1.5 12-20.5 3-1.5zm68 11 2.5 5.5 8 9v2.5l4 2.5 6 11.5q3-1.2 2 2.5l5.5 11.5 3.5 1.5 1 4 10 11 1 4.5 3 1.5 13.5 19.5 6.5 5.5.5 1.5 3-1 14 17 3.5 1 1.5 3 8 3 2.5 2.5 2.5 4.5 4.5 2.5-1 4.5 3 1.5q-2.2 1.3.5 2.5 2.6-.8 1.5 2.5l4 6 .5 2.5 4-1 4.5 3q-1.1 2.7 1.5 2l4 2 10 3 2 2 3-2 5 4 19 3h2l6-1q3.9 3.3 11.5 2l.5 2 4-3 5 3 8 1 3.5-2.5-1 2 5.5 1.5 1.5-4q4.1-1.3 3 2-2.7-1.1-2 1.5l1.5-.5q6.3.8 9-2 1.8 3.8 3.5.5l2-3-1.5-1.5h-6l-13-4-2 1-4-3q-7.4.9-10-3l-1.5.5q.9-3-3.5-1.5l-1.5-3-5-2.5 1.5-.5 16 7q1.5-2.5 3 1l7 2 3-1q3.2 3.3 10 3l2-1 1 1h21l14-2 17-5 16-7 12.5-8q-1.1-2.7 1.5-2l5.5-4 1.5-3 3.5-3.5 5.5-3.5q2.8 1.3.5 2.5l1 3-2 5q1.5 3 7.5 1.5h2q4.4-1.5 3.5 1.5l1.5-.5 10-5h3l2 1 4.5-2.5.5-2.5 4 2 2-4 4 1 5-8 6.5-2q-1.1 2.7 1.5 2l3.5-1 1-4q6.4-.3 9-5.5l1.5-1.5q3.6-2.1 3.5-7l7-5.5 1-3.5 2 .5-1 3 1 1v9l-3 17-11 26q-12.8 21.2-31.5 36.5l-26 18-2-1-1 3-3 1-1.5-2.5 1.5-2.5h-7l-3 3-15 3-22 8h-8l-3 3-6 1-6-1-1 1h-8l-4 2-5-1-3 1q-10.9-1.4-17 2h-2l-6 1-4-2-3 1-18-3h-2l-7-2q-1.5 2.5-3-1l-11-2-4.5 1-1 3.5 2.5.5 1.5-.5q-.9 3 3.5 1.5l2 1 2.5-1q-1.2 3 2.5 2l1.5-.5q.9 3.4-4.5 1.5l-30-10-12-6Q472 381 455 361.5l-16-20-19-30-23-42-33-66 .5-1.5-1.5-1.5-.5-2.5-1.5-1.5q-2.2-1.2.5-2.5Zm216 30 164.5.5-164.5.5z" opacity=".992"/>
<path fill="#a3cbf9" stroke="#a3cbf9" d="m795.5 268 12 2 8 4 8 1 4 2h7l11 3 21 3h10l21 4 20 2 6 2h6l27.5 8.5-2.5.5-8-3-24-4-5-2-17-1-28-5-24-2-5-2h-6l-20-4-1.5.5.5-1.5-19-6zm-402 7 3.5 6q2.7-1.1 2 1.5l15 27 26 41 21.5 23.5 21 17 5.5 2q-1.2 3 2.5 2l3 3 9 3 6 4 31 10 24 4 36 1 1-1h16l5-2 4 1 27-5 23-7 7-4q1.5 2.5 3-1l15-6 20-12 25.5-23.5 16.5-19.5-.5 1.5q-10.7 19.8-27 34 2.3 1.2-.5 2.5l-2-1-25.5 18.5.5 1.5-2-1-18.5 9.5.5 1.5-3-1-7.5 3.5.5 1.5-3-1-9.5 3.5.5 1.5-4-1-11.5 3.5.5 1.5-5-1v1l1.5.5-1.5.5-5-1-12.5 2.5 3 1-2.5.5-1-1h-9v1l1.5.5-2.5.5-1-1h-10v1l2.5.5-4.5.5-1-1h-30l-4 1v-1l2.5-.5-10.5-.5-2 1v-2l-7 1v-2l-6 1v-2l-5 1v-2l-7-1-1.5.5.5-1.5-3 1v-2l-4 1v-2l-11-3-1.5.5.5-1.5-9-3-1.5.5.5-1.5-2 1v-2l-11-5-1.5.5.5-1.5-4-2-1.5.5.5-1.5-2 1-1-3-2 1-1-3-2 1-1-3-6-4-1.5.5 1-1-4.5-4.5-2 1q-2.8-1.2-.5-2.5l-8.5-8.5q-1.8 2.7-3.5-1.5l1-2-6.5-6.5q-1.2 2.3-2.5-.5l1-2q-2-3.7-4-2l1-2-10.5-13.5-1.5.5 1-2-11.5-17.5-1.5.5 1-2-2.5-3.5-1.5.5 1-2-8.5-14.5-1.5.5 1-3zm174 0 9 5 13 1 2-1 6 1 2-1 8 2 14 1 1-1h8l7 2h16l7 2h7l11.5 3.5-117 .5zm-320 4 .5 2.5-3 3-1 4.5q-2.7-1.1-2 1.5l-9 19-3 3v2.5l-3 1.5-3.5 7.5-.5-1.5 6-14zm802 11 2.5 4.5 3 14 1 20-5 21-7.5 13.5-1.5-.5 1 2-17.5 19.5-13 9-2-1-1 3-18 9v-1l7.5-3-1-2.5 5-4q-2.9-3.6-10.5-2.5l-5 4-9 1-15 7-11 2-4-1q-5.2 4.3-14 5h-2l-5 1h-2l-10 2h-12l-8 3h-14l-3-1-5 1-3-1-1 1h-9l-10-2-2 1-1-1-4 4-1.5.5.5 1.5-7.5-.5 6-.5q1.3-3.3-3.5-2-2.3 2.7-8 2v-1l3.5-.5-4.5-1.5q-.7 2.7-5 2v-1q3.8 1 2.5-2l-7.5 2-9.5-2.5 2-1-3-1.5q1.3 3-2.5 2l-3.5-1.5.5-1.5-4 1-24-9-13.5-7.5.5-1.5-2 1-10-7-.5 2.5 4 3 1.5 1.5 8 6 18 8 31 10 34 6 25 1 1 1h27l1-1h18l1-1 17-1 12-2 7-3 2 1h2l29-9 26.5-13q-1.1-2.7 1.5-2 17.1-9.9 29.5-24.5l7.5-12.5.5 3-2 .5v2l-13 19h2l-7 6 .5-1.5-6.5 5.5.5 1.5-2-1q-3.7 2-2 4l-2-1-1 3-2-1-1 3-2-1-3.5 2.5.5 1.5-2-1-14.5 7.5.5 1.5-3-1-4.5 2.5.5 1.5-3-1-18.5 6.5.5 1.5-4-1-4.5 1.5.5 1.5-5-1v2l-5-1-10.5 2.5.5 1.5q-1.8-2.7-8-1l-1 1-24 1-1 1h-37l-1-1-24-1-2 1v-1l1.5-.5-12.5-1.5-2 1v-2l-6 1v-1l1.5-.5-4.5-.5-2 1v-2l-4 1v-2l-11-2-1.5.5.5-1.5-6-1-1.5.5.5-1.5-3 1v-2l-3 1v-2l-7-2-1.5.5.5-1.5-4-1-1.5.5.5-1.5-4-1-1.5.5.5-1.5-2 1v-2l-2 1v-2l-6-2-1.5.5.5-1.5-2 1 1-3-3 2v-2l-8-4-1.5.5.5-1.5-2 1v-2l-2 1-1-3-2 1v-2l-2 1 3.5-4.5-.5-1.5 3.5 1 1-3.5-3 1 8.5-8.5q1.8 2.8 3.5-1.5l2-3q-2.8-1.8 1.5-3.5l1.5.5 1-2q-2.2-1.2.5-2.5l1.5.5 1-2q-2.2-1.2.5-2.5l1.5-.5-.5-1.5q1.3 2.2 2.5-.5l-1-2h2l1-2-.5-1.5 1.5.5-1-2 3-1 1-3-.5-1.5 2.5-1.5-1-3h2l-1-2h2l-1-2h2l-1-2h2l-1-2 2-.5-1-2.5h2l1-4-.5-1.5 1.5.5 1.5-1.5 10 8 28 15 21 7 12 1 5 2h2l14 2h2l2-1 1 1h24l3-1 6 1 10-2h2q36.2-2.3 53.5-23.5l4-8V316q3.7-1.4 2 4.5l2 7-1 3 1 3q-2.7.8-2 5 1.5 3 3 0l-1-2q1.2-2.7 2.5-.5l3 2-.5-1.5q-.8-3 3-1.5l-1 2.5 2.5.5 2.5-3.5-1-2h1l2.5 4.5 3-1 1.5.5 1.5-4.5 1.5 1.5q-2.2 1.2.5 2.5l2.5-1.5 2.5-3.5 9.5-4q-1.7-4.1 2.5-3l3-2 2 1 7.5-5.5 6-10 2-13-1-2zm-490 4h71l1 1 21.5.5-96.5.5v-1zm-267 45q4.8-1.7 3.5 2.5l-.5 1.5 6.5 1 .5-2h7l4 2 2-1 9 2 2-1 7 1h2l3 1 3-2q1.8 3.2 7 3l1.5-3h5v-3.5h1q-.8 2.6 2.5 1.5l2-3 3.5 2.5 3 7 19.5 29.5 3.5 2.5-124 1 3.5 1.5h113l1 1 6-1 6.5 2.5-140.5.5 1-2q7.4-1.1 10.5-6.5l20-33zm3.5 39-1 1h-8v1h79l-14-1-1-1-2 1-3-1-6 1h-2l-3-1h-2l-2 1-4-1-2 1-2-1-3 1h-2l-5-1-3 1-2-1-3 1h-2zm-91.5-25 2.5.5-10 20 .5 1.5q-1.2-2.2-2.5.5l-1 3 .5 1.5-1.5-.5 1 2-3 1-25.5 43.5-33 1-6-1h-2l-5 1h-2l-7-1-1 1h-8l-5-1h-24l-1-1-1.5.5 4.5-2.5h13l6 1 2-1h2l3 1 7-1 2 1 6-1h2l5 1 3-1 5 1 3-1 3 1 5-1h8l1 1 2-1h2q10.3 2.3 12.5-3.5l21-41zM353 459l3 1.5-1 5 1 4-1 3 4.5 5.5 3-1q1.5 3.5 3 1l2 1 3-1q1.8 2.8 3.5-1.5l1.5-6.5.5 28.5-1.5-.5-19 2-9-11-9-4-18-1-12 4-7.5 7.5-2 7v11l1 2-1 3 1 2-1.5-.5h-9l-11.5-3-.5 3q-2.9-7.1-1.5-18.5 3.1-12.4 11.5-19.5l9-5 1.5.5.5-1.5 3 2-1-3 2 1 8-3 3 1q4.3-3.7 14-2l16 3 6 3h5.5l-1-3.5zm460.5 1 .5 47.5 1 1-1 2 .5 1.5q-2.6-.8-1.5 2.5l-6.5 2.5h-2l-5-1-7 2-1.5-13.5 1.5.5 20.5-7.5-1.5-2.5h-8l-12.5 3 .5-35 4 5 5-3 2.5.5.5 1.5 6-2 2.5 1zm-27 3 .5 75.5h-1zm-406 1 .5 81.5h-1zm108 8 17 2 13 8 7 2 2.5-6.5-1-2.5 12.5 1 5-2 1.5 2.5-1 6 1 1v21l-1 2.5h-5.5l-9.5 3q1.7-5.2-2-4l-1.5 3-.5-8.5q-3.2-8.7-10.5-13.5l-12-3h-14q-10.1 2.4-15.5 9.5l-3 6v11l-1 2h2l-1 4 .5 1.5-19-2-1.5-1.5-.5-1.5-1 2-.5-16.5q2.9-11.1 10.5-17.5l8-5 2.5 1q-1.1-2.7 1.5-2 1.5 2.5 3-1l2 2zm151 0 12 4 1-1H670v12h-21.5l-.5 4.5-1 2 1 1v27h-1l-.5-7.5-.5 3-10.5 2h-2l-9.5-1.5v-2l-1-5v-22l-1.5-1.5h-12l-.5-3.5 1.5-8.5q3.2 4.3 11 4l9-5zm86 0 9 2 3-1 3 1 12 2 13.5 9.5 3 7 2 13v24h-1l-.5-22.5-.5 6-18.5-1v2l-1-1-29.5-.5 26-1-26.5-.5h-2l-10.5 3-.5 2-1-1-15.5-.5 2-.5-1-2.5h2l1.5-1.5 6-3 11-2 40-1 1.5-1.5v-2l-2-9-5.5-5.5-5-3h-35l-12 5-.5-1.5 1-3 1-5-.5-1.5h2l2.5.5-.5 1.5q4.4 1.5 3.5-1.5-2.2-1.3.5-2.5 8 1 12-2h10zM405 473l22.5 1q1.3-2.2 2.5.5v33l-3 6.5-5.5 1h-2l-5 1-8-2-1.5.5zm164 1 7.5 1h12l1-1 1.5 1.5v32l-2 7 .5 1.5h-18l-2-2-1.5.5v-34z" opacity=".992"/>
<path fill="#333e52" stroke="#333e52" d="M907.5 34h31l1 1 29 2 37 10 34 16q19 11 33.5 26.5l3 6v4l-69.5 71.5.5-1.5 41.5-44.5 3-2 20.5-22.5 1-6Q1033.9 52.6 966.5 39h-2l-24-2-1-1h-40l-1 1-18 1-29 6-31 11q-38.9 17.6-66.5 46.5l-9.5 15.5-.5-2.5 3-5h-2L773.5 79l22-15 33-15 25-8 19-4 15-1 1-1h18zm-634 1 3.5.5-4 2L182.5 199l-1.5.5v2l-3.5 6.5-1.5-.5 1 2h-2l1 2-3 1-3.5 6.5-1.5-2.5 26-44 9-19 32-57L271 36zm326 0h46l34 6q44.4 13.1 75.5 39.5l1 2q-1.7 3.3-3.5-.5-32-25.5-76-39l-34-6h-41l-38 7-28 10-20 10q-33.8 19.7-59.5 47.5L439.5 132l-1.5-.5-1.5 2.5-2 1q-3.2-1.7.5-3.5 13.5-19 30.5-34.5 28.5-26.5 66-44l27-10zm-212 6q25.1 42.4 46.5 88.5l-2 1-44-86zm679 81 .5 1.5-50.5 54.5 8.5-9.5zm-234 54 14 7 21 7 37 7h7l32 5 39 9 32 13 27.5 19 15 18.5 8 13 6 14 2 9.5-3 1.5-.5 4.5-2.5-14.5-7-17q-9.7-17.8-24.5-30.5l-12-9-26-14-18-6-45-10h-2l-34-4-42-9-19-8zm-502 4 11.5 23 3 1.5 67 130 21 32 18 20 6 9-2.5-1.5-16.5-15.5-17-22 1-2-4-2h2l-1.5-2.5q-1.3 2.3-2.5-.5h2l-1.5-2.5q-1.2 2.3-2.5-.5h2l-1.5-2.5-1.5.5 1-2h-2l1-2-3-1 1-2h-2l1-2h-2l1-2-17.5-30.5-1.5.5 1-2h-2l1-2h-2l-10-20 .5-1.5-1.5-1.5-43-86zm-11 3 .5 1.5L234.5 337l-1-2-.5 2-3.5 1-5.5-1q1.1-2.7-1.5-2l1.5-2.5 4.5-7.5.5 2.5-1 5.5 7-1zm280 33 7 1 7-1h4l2 1 3-1q7.3-1.7 9 2l4-2h18l9 1 5-1 2.5.5.5 1.5 8-2h7l2 2 3-1 4 1 1-1h20l1-1 1 1h17l2-1 6.5 1.5-39.5 1.5h-130l-4.5 2.5-14.5 36.5-1.5-.5 1 3-1 2.5-2 .5 1 2h-2l1 3-1.5 2.5-1-2-1.5 4.5h1l.5-1.5.5 1.5-11 24v8l2.5 2.5 25 3 2-1 1 1h75l1-1h11l7.5-2.5-4-7 2.5-.5h2l14-1v1l-2.5.5 3 3-6 6 1 2-3 1q2.3 1.3-.5 2.5 1.6-1.7-1.5-3.5l-1.5-2.5-6 3h-100l-14 2-2-1v2l-2.5.5 8 3.5.5 2h2l3 2 19 5 24 1 1 1 1-1h13l12-3h6l28.5-13q1.1 2.7-1.5 2l-24 13-15 5-7 1h-30l-20-5-16-10-9-1h-2l-6.5-4.5 3.5-.5 2.5.5.5 1.5 3-2h2l6.5-1.5-8.5-2.5-1.5.5-.5-1.5q-1.2 2.3-2.5-.5.8-2.6-2.5-1.5l-15-8-1.5.5.5-1.5q-3.7 1.3-2.5-2.5l-2-5.5q-2.7 1.1-2-1.5l-2.5-3.5-1.5.5 2.5-1.5 10.5 9-6-8.5q2.5-1.5-1-3l-20-37V240l3 1.5 32.5 57.5 5 3 3.5-1 2-3.5 2.5-11.5 1.5.5-1-3 22-54 7.5-11.5 3-1h26zm-283 48 .5 1.5-26 45-42 67.5q-2.7-1.1-2 1.5l-10 19 2.5 2.5h170l5.5-1-.5 2h-179l-1.5-3.5 26.5-44.5 1.5.5-1-2 30-48 4-4zm-189 26 2.5.5 1 2-32 56-40 75-9 12v2.5l-2 .5 1.5 1.5 29.5.5-33.5.5 1.5-2.5V435q3 1.3 2-2.5L126.5 292l1.5.5zm662 9 .5 3.5-1 2 1 3.5 7.5 2 5 5 18 10 24 9 28 6 34 1 3-1 2 1 23-3 13-4 1.5.5 1.5-1.5 14.5-9.5.5-1.5 2.5 1-2.5 5-9 6-21 7-21 3h-34l-1-1h-9l-31-7-29-12-14.5-8-3.5-5-4.5-3.5q-1.7-6.8 1.5-8.5Zm276.5 8q2.7-1.1 2 1.5l1.5 3.5 1.5-.5v2l.5 25.5 1.5-.5.5 1.5 1-4 .5 3.5q-9 42-37.5 64.5l-23 14 1-2q20.4-9.6 33.5-26.5l10-15 5-11 6-23v-18l-1.5-2.5-2 4zm-838.5 35 1.5.5-4 7 4-2-23.5 39.5.5-1.5 17-34-2.5-.5-7.5 4-1-2.5 2.5-3.5q1.5 2.5 3-1zm-28 55-.5 1.5-24.5 43.5-.5-1.5z" opacity=".992"/>
<path fill="#333e52" stroke="#333e52" d="m70.5 428 81.5.5-81.5.5zm708.5 4h45.5l1.5 1.5 1 5v63l1 2v2q.7 2.6-2 1.5v-64.5q-2.7-1.8-1-8l-1.5-1.5-2 1H780l-1 3.5-.5 40.5-.5-42.5zm-163.5 7q10.8-1.7 17 1h6l8-1 7 1h2q4.4-1.5 3.5 1.5l2 6v2q1.3 4.8-2 3.5v-10.5l-1.5-1.5h-46l-1 1-.5-2zm-332 30-1 2-12.5 10.5-7 14-1 22 2 11 4 8 11.5 12.5q8.8 5.7 21 8l27 1 14-3v1l-10 3h-26l-11-2-13-5-12.5-11.5-6-11-2-9v-22q5.1-17.9 18.5-27.5zm151 6 .5 68.5h-1zm392 33 1.5 2.5v45l-2.5 2.5h-74l-2.5-1.5 4.5-.5 1 1h70l2.5-7.5-1-1v-9l1-1v-16l-1-4v-2l1-5zm-212 39q4.8 8.2 16 10h43l5-1v1l-9 2h-33l-11-2-10.5-7.5zm70 4 7 4 8 2h35l4-1v1l-20 2-2-1-2 1h-2l-19-2-8-4zm-131 10-.5 1.5-5.5 7.5q-11.1 8.9-27 13l-12 2h-26l-4-1h-2q-17.5-1-26.5-10.5l-2-4 2 1 4.5 5.5 14 6 16 1 1 1 3-1 1 1h15l13-2 16-5 16.5-11.5z" opacity=".992"/>
<path fill="#608cc5" stroke="#608cc5" d="m176.5 207 .5 1.5-12 22.5-2 .5.5 1.5-1.5.5.5 1.5-1.5.5.5 1.5-1.5-.5 1 2-2.5.5-3 2 1.5-2.5 11.5-20.5-.5 1.5-1 3 2-1zm20 150-.5 1.5-33.5 61.5h-83l-.5-1.5 3-2q-2.5-1.5 1-3l1.5-1.5v-2l8-4 3 1 26-7h2q9.9-1.6 16-7l1 1 3-3q2.6.7 1.5-2h3.5q7.8-2.2 12-8h3l13-6 8.5-8.5 1.5-1.5zm99 21 7 1h2l3-1 2 1 3-1 5 1h2l3-1 2 1 2-1 4 1 2-1h2l3 1h2l6-1 3 1 2-1 1 1 14.5.5-79.5.5v-1h8zm392 10 7.5.5-2 3 1.5-.5 6-3-1 2-24.5 11-.5-2-.5 3-2.5-1-.5 2-2.5-1q-1.7 3.1-3.5 1.5.9 3-3.5 1.5l-2 1-1.5-.5q.9 3-3.5 1.5l-3 1-1.5-.5q.8 2.6-2.5 1.5l-1.5-.5q.9 3.4-4.5 1.5l-3 1-2.5-1q1.4 4-5.5 2l-1 1h-8l-10 2h-15l-1 1h-2l-5-1h-21l-26.5-4-.5-2-3.5 1q1.1-2.7-1.5-2l-2 1-4.5-1-.5-2-3 1 .5-1.5q-1.3-4.2 3.5-2.5l3-1 9 2 2 2 3-1 6 3 3-1 18 3 2-1 5 2 5-2 3 1 4-2h11l1-1h2l5 1 4-2 14-1h7l3-3h8l22-8 15-3zm305 3q7.6-1.1 10.5 2.5-3.7 1.7-.5 3.5l3-2-1 2-2 1q-1.5-3.5-3-1l-1.5.5 1 2.5-14.5 6-1.5-.5q.8 2.6-2.5 1.5l-13 5-17 4-25 3h-2l-9 1-2-1q-5.8 3.7-17 2l-5-1h-2l-7 1-2-1-1 1h-12l-4-2-1 1h-9l-3-2-6 1-1-2 5-4 2 1h2l18 1 3-1h2l5 1h16l8-3h12l11-3h2l5-1 2 1 16-5h9l10-5h4l4-3 9-1zm-174 67 .5 80.5h-1zm-49 49 .5 16.5-1 1V541h-14v-4.5l-1.5-2.5-1 2-2-3-5 4-2-1v2l-2-1v2l-3-1-14 4h-17l-7-1-2 1v-2l-3 1v-1l1.5-.5-3.5-1.5v2l-1-3-2 1-3.5-3.5 1-1-.5-1.5-1.5.5.5-1.5-1.5-.5 1-2.5q-3.5 1.1-2-6.5 1.5-6.5 6.5-9.5l2-1-.5 1.5-1.5 1.5v1h15l1 1 .5-2 10.5-3h2l26.5.5-31.5 1.5-9.5 6.5-1 8 6 4.5q-1.1 2.7 1.5 2l2-1v1l-1.5.5 5.5.5 1-1h9v1l-8.5.5 11.5.5 4.5-1.5-2-1 1.5-.5q1.5 3.5 3 1l1.5-.5-2-1 1.5-.5 3 1v-2l2 1 2-3 4.5-3.5q2.7-3.3 2-10l-2-3 2.5-.5 1 1H769zm-179 1 .5 21.5-1 1V541h-20v-9.5h-1l-.5 9.5-.5-25.5q1.8-3.2 3.5.5l18.5-.5v-2zm33 3 1.5 5.5-.5 1.5 9 1h2l10.5-2 .5-3 1.5 11.5 4.5 6.5 2-1v1l-1.5.5 2.5.5 2-1v2H668v7l-5.5 1h-2l-24-1-9-5 1 3q-4.2-1.7-1.5-3.5l-1.5-3.5-1.5.5 1-3h-2l1-5-1-1zm-248 1 1.5 7.5V543l-21-.5 20-.5-.5-15-.5 14h-19v-6.5l-2.5-.5-5 2-2-1-7 4-13 3h-17l-10-2-2 1v-1l1.5-.5-2.5-.5-1.5.5.5-1.5-2 1v-2l-2 1v-2l-2 1-3-4-1 1-4.5-4.5-4-12.5 5.5 2 15 1 1 1 .5-1.5-1-3h1l6.5 9.5 8.5 4 .5 2 2.5-1q-1.2 3 2.5 2l1-1h9l6 1v-1l-1.5-.5 1.5-.5 3.5 1q-1.1-2.7 1.5-2l10.5-7.5 4.5-8.5 3 5h7l8-2 1.5.5zm75 1 2 3 19 2-.5-1.5.5-2.5 7 9 8 4 16 1 12-3 7-5v2h7l12-3 2 1 2-4 1.5 3.5v14q-3.4 2.8-2 9.5l-2 .5 1 3h-1l-1.5-2.5-3.5 1.5 5 3-4.5 6.5 1.5-2.5-1.5-1.5-3 1q-2.6-.8-1.5 2.5l-5.5 3.5q-.7-2.7-5-2l-2 1 1-2 1.5-1.5 2-4 1.5-1.5v-2l1.5.5-1-6 1-2-2-4 1-2.5q-2.7 1.1-2-1.5l-4.5-1.5-7 6-1.5-.5-.5 1.5-2-1v2l-3-1v2l-4-1v1l1.5.5-1.5.5-1-1h-8l-4 2-2-1-3 1-4.5-.5 5-1-7.5-.5-2 1v-1l1.5-.5-3.5-.5-2 1v-1l1.5-.5-2.5-.5-1.5.5-1.5-1.5-1.5.5.5-1.5-2 1-10.5-9.5-4-9z" opacity=".992"/>
<path fill="#020407" stroke="#020407" d="m351.5 30 4 1 5-1h4l18 1 7.5 5.5 44 85.5 4-1.5q10.2-15.8 24.5-27.5l21-17 23-15 17-9 23-9 19-6 16-2 5-2 19-1 1-1h32l31 4 17 4 20 7 26 13q16.3 8.7 29 21h2q20-17 46-28l37-13 37-7h11l1-1h45l1 1h11l1 1 23 2 40 12 24 12 17 11 23.5 20.5 4 7v7l-11 16.5-3 1.5-40 46.5-3 1.5-12.5 14.5-8 5h-9l-20-10-27-9-33-5h-23l-30 5-14 4-3.5 2.5 8.5 4.5 21 6 48 8 13 1 54 13q40.4 14.6 65.5 44.5 13.2 15.8 21 37l5 22 1 29-4 23-10 24-12 17-12.5 12.5q-16.2 12.8-36 22l-31 10-52 9h-14l-1 1h-59l-1-1H835l1 99.5q-.9 6.6-5.5 9.5l-4 2h-101l-1 1h-18l-1-1h-10q-4.6-2.9-13-2l-3 2q-6.2-1.7-8 1h-39l-11-2-9-5h-3l-2.5 4-6.5 3h-27l-7-1-7.5 1-7.5 10-13 8-12 4-15 3-21 1-1-1h-14l-15-4-17.5-11.5-5-10.5-15.5 1q-1.7-2.7-8-1-1.7 2.8-8 1l-1-1h-57l-7-1-8 2h-22l-13-2-9-3q-14.8-5.7-23.5-17.5l-8-16-2-11v-17l3-13 5-10 9.5-10.5 5-4 19-8 23-3 1 1H335l1-11.5v-2l-1-5 1-7 4.5-4.5 3-1h41l6 3 5-3h46l4.5 2 3 4.5V468l13.5-7 23-3h2l14 1 14 4q4.2-4.3 14-3l3 1h20l1.5-1.5-1-5.5-13.5-1-24-6-16-5-23-10-31-21-14.5-14.5-1.5-1.5-17.5-21.5-17-28L326.5 214 314 232.5l-46 83-17 27-11 22-53.5 90.5-10 4h-127l-9.5-7.5-3-5v-9l141-256 68-118 16-26 5.5-5.5 2-1h81zM908 34l-1 1h-18l-1 1-15 1-19 4-25 8-33 15-22 15q-21 18-37 42l-10 21-4 16v26l2 5 2-1v-25l3-16 10-23 14-22q28-29 67-47l31-11 29-6 18-1 1-1h40l1 1 24 2h2q67 14 106 56l-1 6-20 22-3 2-42 44 1 1 68-70v-4l-3-6q-14-16-33-27l-34-16-37-10-29-2-1-1zm-634 1-3 1-36 61-45 83-17 27L49 433q1 3-2 2v4l-1 2h33l-29-1-2-1 2-1v-2l9-12 40-75 53-92 63-117 20-33 38-69 4-2zm326 0-41 8-27 10q-38 18-66 44-17 16-31 35-4 1 0 3l2-1 1-2h2l16-20q26-28 60-48l20-10 28-10 38-7h41l34 6q44 13 76 39 1 4 3 1l-1-2q-31-27-75-40l-34-6zm-320 6L92 378l-27 51h101l2-1 46-80h1l-3 5 1 2 8-4 2 1-11 22 1 1 52-90 45-82v-2l-75 131-7 1 1-2-1-5-7 12h-1l104-190q-1-3 2-2l45 93 35 67 28 45 20 24q21 22 52 35l38 12 20 3h14l1 1h21l1-1 25-1 28-5 14-4q42-14 72-41 21-20 33-48l7-27 2-30 1 19q-1-5 3-6-1-4 3-2l2 5 1-1v-9l3-2-2-1-1-2q18 8 40 12l77 11h7l22 4 20 6 10 5 7 8 1 3v5l-3 6-10 8-11 5-19 5-13 1-3 1h-35l-35-6-26-9-36-20q-10 38-35 64l-14 13q28 18 65 29l32 7 23 3h15l1 1 48-1 39-6q41-10 71-32 13-12 23-27l9-22 3-20-1-19-4-16q-6-17-16-29-20-25-52-37l-37-10-43-7h-7l-38-7-22-7-14-8q-7-4-10-12-1-9 2-12 8-11 23-16l27-7 19-1 1-1h27l28 4 31 9 24 12 20-22 1-1 7-6 35-36q-13-15-30-25l-30-15-15-5-27-6-17-1-1-1h-15l-1-1-4 1h-30l-22 3-21 5q-46 13-76 40-17 14-29 34-10 15-14 37v23q3 17 10 30l2 1 27 1 4 7 6 21v3l-3-6q1-4-2-3l-2-2h-1l2 7v3l-4-12-4-8v-2H578l-5 9-23 64 1 1h102l1 1 16 1h-8l-3 1 4 7-7 2h-11l-1 1h-75l-1-1-2 1-25-3-3-2v-8l5-9 26-67 5-3h130l39-1-6-2-2 1h-48l-1-1-15 1-3-1-5 1-9-1h-18l-1 1-12-1-3 1-2-1-3 1-7-1h-2l-33 1-3 1-8 12-22 54-3 14-2 3-3 1-5-3-33-57-3-2v4l20 37q3 1 1 3l6 8 2 2q-3 1-2-2l-10-9-2 1 3 4q-1 2 2 1l1 5 1 1-14-20-46-86-72-144-3-4zm109 1-1 3 44 86 2-1zm220 0-29 4-36 11q-36 15-62 39-26 21-42 51l45 82 15-30 14-18q16-18 39-30l28-10 18-3h28l20 3q21 5 37 16l64-70-23-18q-19-11-40-18l-36-8zm103 127q-8 10-19 15l-14-1-26-10-15-3h-32l-18 4-22 9-18 14-2 2-4 3-17 22-15 33 5 13 12 20 3 1 11-28 20-44 9-6h148l-6-30 1-5v-2l-1-2v-2l1-2zm121 7 5 6 19 8 42 9 34 4h2l45 10 18 6 26 14 12 9q14 13 24 31l7 17 3 15v7l-2-3q1-3-2-2l1 17 2-4 1 3v18l-6 23-5 11-10 15q-11 14-28 23l-1 2 18-11q16-14 27-34l6-14 5-22v-23l-5-22-12-24-17-22-27-19-32-13-39-9-32-5h-7l-37-7-21-7zm-501 5-1 3 3 7 60 121 20 35 24 32 17 15-4-7-18-20-21-32-66-128h-2l1-2h-1v-1l-2-1zm458 118q-4 2-2 9l5 3 3 5 15 8 29 12 31 7h9l1 1h34l21-3 21-7 9-6 2-5-2-1-1 2q-8 9-22 12l-31 5-2-1-3 1-34-1-28-6-24-9-18-10-5-5-8-2-1-3 1-2zm15 10v2l4 3 13 7 24 9 39 7 37-1 16-3 9-4q2 1 1-2l-19-4-80-8zm-83 116-28 14-26 9-2 1v11q1 2 3 0 14-2 19 6l13-5 12-2h30l6 1 22 9-1-3v-22l-29-11-15-8zm57 7-1 4 1 42v-40l1-4h42l2-1 1 2q-2 6 1 8v64q3 1 2-1v-2l-1-2v-63l-1-5-1-2zm-431 3v37l-11-4h-8l-1-1h-14l-13 2-15 7-10 10-4 8-2 12 1 12 3 9 4 6q10 11 28 14l29-1 12-4 3-3v4l4 3h27V435zm438 3v108h33V440q-1-3-2-1h-8l-1-1-2 1q-13 1-20-1Zm-166 7-2 2v23h-13v21h14l-1 2v33l3 11q5 8 18 10h29l1-1q5 1 5 0v-19l-6 2-11-1-5-5v-32h24l-1-9v-12h-23v-25zm-135 22-14 2-14 7q-10 7-13 21-2 19 5 30l11 10 21 7q26 3 39-8l2-1-2 12-9 7-13 3h-14l-12-2-16-8-1 19 13 5 9 1h2l1 1h14l1 1 17-1 10-2 16-7q9-7 12-20v-75h-28v7l-11-6-8-2-16-1zm237 0-1 1-17 1-12 4-3 3v18l15-6 13-2h13l13 3q5 3 5 11l-40 1-12 3-8 4-8 11q-2 10 2 16l8 7 14 5h24l5-1q10-2 16-8l1 6 3 2h22v-47l-3-13-4-6q-6-7-15-10l-9-2zm-320 2-2 2 1 1v74h31l1 1 2-1v-77zm162 0v78l3-1h25l3 1 1-1v-77zm-297 17-6 13v22l2 9q5 12 15 19h1l-11-12-4-8-2-11 1-22 4-8zm560 22v4l-1 5v2l1 4v16l-1 1v9l1 1-2 7h-70l-1-1-5 1 3 1h74l2-2v-45zm-547 41q1 4 6 5l20 5h26l8-2v-1l-12 2-27-1q-13-2-21-8Zm273 13-3 4-16 11-16 5-13 2h-15l-1-1-3 1-1-1h-11l-9-3-4 1 11 3h7l4 1h26l12-2q15-4 27-13l5-6z" opacity=".988"/>
<path fill="#020407" stroke="#020407" d="M321.5 252q10.4-1.4 13.5 4.5l47 79 37 58 5 11q-1.2 8.3-7.5 11.5l-7 2h-170q-7.8-1.2-11.5-6.5l-2-4-1-8L316.5 255zm4.5 11-27 43-48 83 8-1h141l2 1-1-4-56-90-17-31zm-20 20-38 58-34 58 2 3h179v-2l-5 1H240l-3-2 10-19q-1-3 2-2l57-93zm371.5 21-1.5 2.5-4 6.5-14.5 11-20 10-23 6-23 1-1-1-15-1-18-6q-16.4-6.6-27.5-18.5l4.5 3.5 2 1 7-1 15 9 13 5 11 2h30l22-6 25.5-13q1.1-2.7-1.5-2l-12 7h-3l-12 6h-6l-12 3h-13l-1 1-1-1h-18l-11-2-14-4-16.5-9.5 1.5.5 4 1v-2l3 1 13-2h98l1-1 3 1 4-3 3 4zm-356 184q19.1-1.6 26.5 8.5l2 7v9q-1.4 7.5-6.5 11.5l-12 4h-10q-11.3-1.7-16.5-9.5l-2-4-1-8 2-8 7.5-7.5zm170 0 17 1q7.2 1.8 10.5 7.5 3.3 4.7 2 14l-5.5 8.5q-8.4 6.1-25 4-7.6-1.5-11.5-6.5-4.7-4.8-4-15 1.8-7.2 7.5-10.5z" opacity=".988"/>
</g>
<g id="digital-vector" aria-hidden="true" filter="url(#digitalShadow)">
  <text x="270" y="552" textLength="530" lengthAdjust="spacingAndGlyphs" font-family="Arial Black, Impact, 'Segoe UI Black', sans-serif" font-size="130" font-weight="900" letter-spacing="0" fill="#020407" stroke="#020407" stroke-width="36" stroke-linejoin="round" paint-order="stroke fill">digital</text>
  <text x="270" y="552" textLength="530" lengthAdjust="spacingAndGlyphs" font-family="Arial Black, Impact, 'Segoe UI Black', sans-serif" font-size="130" font-weight="900" letter-spacing="0" fill="none" stroke="#f8fdff" stroke-width="16" stroke-linejoin="round" paint-order="stroke">digital</text>
  <text x="270" y="552" textLength="530" lengthAdjust="spacingAndGlyphs" font-family="Arial Black, Impact, 'Segoe UI Black', sans-serif" font-size="130" font-weight="900" letter-spacing="0" fill="url(#digitalFill)" stroke="#6facf5" stroke-width="5" stroke-linejoin="round" paint-order="stroke fill">digital</text>
</g>
</svg>
