<?xml version="1.0" encoding="UTF-8"?>
<svg xmlns="http://www.w3.org/2000/svg" viewBox="0 0 1123 645">
  <defs>
    <clipPath id="agsOnlyClip">
      <rect x="0" y="0" width="1123" height="430"/>
    </clipPath>
  </defs>
  <g clip-path="url(#agsOnlyClip)">
  <path d="M 292.750 30.749 C 304.438 30.909, 323.563 30.909, 335.250 30.749 C 346.938 30.589, 337.375 30.458, 314 30.458 C 290.625 30.458, 281.063 30.589, 292.750 30.749 M 616.250 30.735 C 618.862 30.941, 623.138 30.941, 625.750 30.735 C 628.362 30.529, 626.225 30.360, 621 30.360 C 615.775 30.360, 613.638 30.529, 616.250 30.735 M 910.797 30.745 C 915.361 30.930, 922.561 30.929, 926.797 30.742 C 931.034 30.555, 927.300 30.404, 918.500 30.405 C 909.700 30.406, 906.234 30.559, 910.797 30.745 M 265.375 32.772 C 264.206 33.723, 262.447 35.850, 261.466 37.500 C 259.948 40.052, 260.162 39.943, 262.900 36.767 C 264.670 34.713, 266.879 32.589, 267.809 32.047 C 268.739 31.505, 269.050 31.057, 268.500 31.053 C 267.950 31.048, 266.544 31.822, 265.375 32.772 M 323.315 33.749 C 333.664 33.912, 350.314 33.911, 360.315 33.748 C 370.317 33.585, 361.850 33.452, 341.500 33.453 C 321.150 33.453, 312.967 33.586, 323.315 33.749 M 897 34.664 C 866.795 36.776, 836.029 44.873, 808.383 57.984 C 789.336 67.018, 777.421 75.387, 762.940 89.907 C 743.543 109.356, 733.431 124.257, 726.911 143 C 723.853 151.791, 723.579 153.620, 723.235 167.500 C 722.963 178.475, 723.262 184.110, 724.349 188.500 C 725.509 193.189, 725.877 193.844, 726.034 191.500 C 726.187 189.220, 726.435 189.693, 727.066 193.472 C 727.933 198.656, 730.926 207.407, 731.601 206.732 C 731.816 206.518, 730.984 202.778, 729.754 198.421 C 727.846 191.666, 727.525 188.145, 727.571 174.500 C 727.615 161.203, 728.013 156.979, 729.923 149.500 C 732.125 140.883, 738.040 127.581, 743.931 118 C 745.453 115.525, 747.856 111.453, 749.273 108.952 C 752.351 103.515, 762.824 92.666, 772.583 84.804 C 791.400 69.646, 817.572 55.277, 838.500 48.614 C 880.595 35.213, 913.361 32.910, 967 39.583 C 973.815 40.431, 989.417 44.486, 999.500 48.029 C 1015.853 53.775, 1037.195 65.009, 1052.334 75.838 C 1060.809 81.901, 1073 94.225, 1073 96.730 C 1073 98.439, 1063.659 109.760, 1058.298 114.548 C 1056.422 116.224, 1054.349 118.648, 1053.693 119.935 C 1053.037 121.223, 1052.199 122.101, 1051.831 121.888 C 1050.917 121.359, 1046 126.073, 1046 127.478 C 1046 129.079, 1039.510 135.177, 1038.684 134.351 C 1038.308 133.975, 1038 134.238, 1038 134.936 C 1038 136.103, 1005.528 171.055, 1003.706 171.849 C 1003.266 172.041, 999.777 170.554, 995.953 168.545 C 992.129 166.535, 989 165.089, 989 165.331 C 989 165.854, 1002.355 174, 1003.213 174 C 1003.827 174, 1039.702 137.768, 1062.803 113.818 C 1077.660 98.414, 1078.156 97.277, 1073.073 90.260 C 1066.823 81.632, 1048.551 67.976, 1030.518 58.456 C 1021.024 53.444, 1001.149 45.381, 992 42.831 C 971.188 37.030, 944.793 33.911, 918.741 34.175 C 909.258 34.271, 899.475 34.491, 897 34.664 M 271.751 36.080 C 270.789 36.640, 266.924 42.364, 263.161 48.799 C 246.601 77.126, 233.446 100.109, 221.550 121.500 C 214.515 134.150, 207.308 146.975, 205.534 150 C 203.760 153.025, 199.690 160.450, 196.488 166.500 C 193.287 172.550, 189.001 180.200, 186.965 183.500 C 182.823 190.211, 174.237 205.203, 165.487 221 C 162.288 226.775, 158.174 233.865, 156.344 236.756 C 154.515 239.646, 152.964 242.346, 152.899 242.756 C 152.834 243.165, 151.981 244.625, 151.004 246 C 150.028 247.375, 148.508 250.230, 147.626 252.344 C 146.129 255.936, 125.231 294.327, 109.982 321.500 C 80.223 374.529, 59.922 411.551, 53.228 425 C 50.628 430.225, 48.133 434.770, 47.684 435.100 C 47.234 435.430, 46.753 436.479, 46.613 437.430 C 46.474 438.381, 45.716 439.567, 44.930 440.065 C 44.066 440.611, 68.758 441.046, 107.250 441.163 C 142.313 441.270, 171.990 441.389, 173.201 441.429 C 175.548 441.505, 175.998 440.832, 187.522 420 C 190.716 414.225, 197.680 401.850, 202.996 392.500 C 208.312 383.150, 214.585 371.949, 216.934 367.609 C 223.204 356.029, 230.023 346.447, 231.732 346.816 C 233.733 347.249, 236.989 344.135, 236.330 342.419 C 236.036 341.652, 236.294 339.596, 236.902 337.850 C 238.497 333.277, 237.485 333.167, 235.116 337.656 C 234.001 339.770, 233.069 341.039, 233.044 340.476 C 232.998 339.412, 233.937 337.732, 253.340 304.175 C 259.804 292.997, 268.613 277.472, 272.916 269.675 C 277.219 261.879, 285.125 247.625, 290.485 238 C 305.310 211.377, 321.002 182.209, 320.985 181.306 C 320.968 180.325, 309.009 200.455, 303.047 211.500 C 297.933 220.976, 296.904 222.817, 277.880 256.500 C 250.331 305.277, 244.500 315.341, 241.361 319.534 C 239.634 321.841, 237.947 324.593, 237.611 325.651 C 237.275 326.709, 236.062 327.645, 234.915 327.731 C 233.328 327.851, 232.991 327.483, 233.508 326.194 C 233.882 325.262, 234.755 322.363, 235.448 319.750 C 236.565 315.534, 236.527 315.001, 235.104 315.008 C 234.161 315.013, 232.127 317.603, 230.168 321.292 C 228.335 324.743, 225.945 328.677, 224.857 330.034 C 222.880 332.500, 222.880 332.500, 224.342 329.500 C 225.146 327.850, 231.522 316.150, 238.511 303.500 C 245.500 290.850, 261.463 261.825, 273.984 239 C 286.505 216.175, 300.867 190.075, 305.900 181 C 310.932 171.925, 317.176 160.340, 319.775 155.255 C 324.180 146.636, 326 144.284, 326 147.214 C 326 150.108, 397.105 289.239, 412.005 315.500 C 429.620 346.546, 447.793 370.016, 465.955 385.176 C 505.135 417.879, 558.265 431.042, 622.549 423.971 C 697.774 415.698, 757.189 374.294, 775.340 317.500 C 778.972 306.137, 780.103 299.504, 780.953 284.594 L 781.699 271.500 781.880 284 C 782.027 294.191, 782.281 296.131, 783.254 294.500 C 783.911 293.400, 784.463 292.275, 784.481 292 C 784.500 291.725, 785.264 290.437, 786.179 289.139 C 787.844 286.778, 787.844 286.778, 788.505 291.183 C 788.868 293.606, 788.705 298.044, 788.142 301.044 C 787.120 306.500, 787.120 306.500, 793.092 312.262 C 797.584 316.595, 801.864 319.369, 810.346 323.447 C 830.413 333.094, 842.046 336.975, 864.885 341.641 C 877.221 344.162, 909.089 344.623, 924.117 342.499 C 943.016 339.826, 956.440 335.158, 964.710 328.381 C 968.194 325.526, 968.940 324.372, 968.412 322.653 C 968.049 321.469, 967.588 320.318, 967.388 320.095 C 967.188 319.873, 965.233 321.726, 963.043 324.214 C 953.381 335.191, 931.616 340.400, 895.500 340.381 C 873.477 340.369, 864.272 339.166, 846.111 333.928 C 825.570 328.004, 808.213 319.749, 799.381 311.703 C 796.528 309.104, 794.697 308.288, 791.250 308.077 C 789.278 307.956, 789.590 291.858, 791.654 287.218 C 792.563 285.173, 793.206 282.883, 793.082 282.130 C 792.703 279.822, 795.101 275.129, 796.849 274.758 C 798.082 274.496, 797.740 273.974, 795.500 272.700 L 792.500 270.994 795.500 271.639 C 797.150 271.994, 801.425 273.319, 805 274.584 C 815.525 278.308, 825.552 280.720, 841.505 283.366 C 856.922 285.923, 859.033 286.226, 873.832 288.008 C 890.781 290.049, 925.304 295.091, 932.347 296.554 C 959.202 302.133, 973.415 309.508, 975.487 318.940 C 977.255 326.989, 967.895 336.316, 952.438 341.909 C 935.678 347.973, 926.040 349.370, 900.500 349.433 C 875.838 349.495, 865.800 348.376, 847.318 343.504 C 827.926 338.392, 805.550 328.424, 791.767 318.755 C 788.422 316.409, 785.597 315.056, 785.141 315.582 C 784.705 316.087, 783.736 318.525, 782.988 321 C 780.780 328.304, 773.416 345.183, 769.584 351.722 C 763.582 361.963, 754.600 373.356, 745.051 382.841 C 736.133 391.700, 735.986 391.923, 738.218 393.165 C 739.473 393.863, 742.750 395.710, 745.500 397.269 C 760.540 405.795, 783.189 415.441, 800.097 420.521 C 810.418 423.621, 829.788 427.495, 845.500 429.601 C 861.663 431.767, 908.621 432.105, 925.938 430.179 C 947.369 427.795, 973.548 421.608, 989.958 415.047 C 999.469 411.245, 1015.251 402.945, 1022.511 397.927 C 1030.392 392.479, 1040.934 382.238, 1047.139 374 C 1052.903 366.349, 1059.581 352.094, 1062.131 342 C 1065.372 329.168, 1065.153 309.053, 1061.626 295.579 C 1056.823 277.234, 1049.353 264.545, 1035.332 250.915 C 1010.365 226.645, 982.661 216.456, 916 207.030 C 863.969 199.672, 843.812 193.915, 829.226 182.246 C 809.693 166.620, 826.125 146.847, 865.149 139.016 C 896.914 132.643, 932.602 134.423, 964.801 143.989 C 976.102 147.346, 991.282 153.761, 996.800 157.510 C 998.815 158.880, 1000.769 160, 1001.142 160 C 1001.515 160, 1010.073 151.571, 1020.160 141.269 C 1030.247 130.967, 1044.690 116.239, 1052.257 108.539 C 1059.823 100.839, 1065.898 94.255, 1065.757 93.908 C 1065.031 92.122, 1051.237 81.023, 1042.086 74.863 C 1015.784 57.157, 986.398 46.772, 951.500 42.850 C 935.244 41.023, 901.779 41.295, 886.223 43.381 C 871.507 45.355, 847.019 51.483, 834.222 56.395 C 808.067 66.434, 787.362 79.567, 769.473 97.466 C 752.882 114.067, 744.261 127.347, 737.797 146.263 C 735.005 154.430, 734.595 157.063, 734.250 169 C 733.907 180.869, 734.156 183.649, 736.312 192.011 C 737.660 197.243, 740.113 204.498, 741.761 208.134 L 744.759 214.746 757.630 215.439 C 764.708 215.820, 771.246 216.344, 772.158 216.604 C 774.358 217.231, 777.429 223.953, 779.874 233.498 C 782.133 242.316, 781.082 242.521, 778.583 233.750 C 776.919 227.910, 775.301 225.723, 776.365 230.750 C 776.914 233.346, 776.884 233.374, 775.821 231.250 C 774.722 229.056, 773 228.182, 773 229.818 C 773 230.269, 773.706 233.013, 774.568 235.917 C 775.430 238.821, 775.953 241.381, 775.728 241.605 C 775.504 241.829, 774.754 240.097, 774.062 237.756 C 773.370 235.415, 771.892 231.362, 770.779 228.750 L 768.754 224 672.912 224 C 578.683 224, 577.053 224.033, 576.019 225.964 C 573.739 230.225, 549.666 297, 550.214 297.547 C 550.403 297.737, 570.346 298.029, 594.529 298.196 C 638.877 298.503, 669.604 299.380, 650.838 299.804 C 643.315 299.974, 642.210 300.224, 642.427 301.702 C 642.564 302.638, 643.865 303.721, 645.318 304.110 C 646.770 304.498, 648.631 305.488, 649.452 306.309 C 650.775 307.632, 650.769 307.947, 649.399 309.084 C 647.066 311.020, 569.936 310.975, 557.254 309.031 C 552.091 308.239, 548.551 307.277, 549.238 306.853 C 550.046 306.353, 549.200 305.564, 546.766 304.547 C 544.730 303.696, 542.655 303, 542.155 303 C 541.654 303, 540.689 302.330, 540.009 301.511 C 538.557 299.762, 539.406 293.736, 541.383 291.759 C 542.101 291.042, 543.498 287.990, 544.487 284.977 C 545.476 281.965, 550.422 268.925, 555.478 256 C 560.533 243.075, 565.577 230.025, 566.686 227 C 567.974 223.487, 569.569 221.054, 571.101 220.265 C 572.925 219.325, 587.871 219.025, 633.500 219.013 C 695.569 218.995, 746.109 218.044, 740 217.007 C 738.075 216.681, 699.825 216.433, 655 216.457 C 564.940 216.505, 569.539 216.173, 565.616 222.908 C 564.524 224.783, 561.869 230.633, 559.716 235.908 C 557.563 241.184, 553.320 251.575, 550.287 259 C 542.718 277.529, 541.261 281.287, 538.070 290.500 C 535.553 297.768, 535.080 298.469, 532.900 298.161 C 531.580 297.974, 529.567 296.957, 528.426 295.901 C 527.285 294.846, 526.048 294.286, 525.676 294.658 C 525.304 295.029, 525 294.900, 525 294.370 C 525 293.840, 524.311 292.528, 523.470 291.453 C 522.628 290.379, 520 286.125, 517.628 282 C 515.256 277.875, 511.293 271.125, 508.819 267 C 506.346 262.875, 501.501 254.662, 498.054 248.750 C 494.606 242.838, 491.384 238, 490.893 238 C 488.792 238, 490.540 242.201, 499.500 258.681 C 504.725 268.291, 509 276.344, 509 276.577 C 509 277.989, 505.158 276.581, 502.651 274.250 C 499.800 271.599, 499.845 271.779, 503.917 279.250 C 506.240 283.513, 507.938 287, 507.691 287 C 506.701 287, 492.519 262.019, 479.019 236.500 C 440.862 164.368, 436.276 155.501, 402.747 89 C 390.130 63.975, 379.342 42.933, 378.773 42.241 C 377.962 41.253, 367.059 41.037, 328.165 41.241 L 278.590 41.500 270.677 55.500 C 266.325 63.200, 258.711 76.925, 253.758 86 C 244.910 102.209, 212.991 160.098, 192.279 197.500 C 172.119 233.905, 160.769 254, 160.367 254 C 160.145 254, 162.472 249.300, 165.540 243.556 C 171.117 233.111, 171.117 233.111, 168.331 233.616 C 166.799 233.894, 165.500 234.207, 165.444 234.311 C 163.652 237.680, 158.005 246.163, 158.017 245.469 C 158.026 244.936, 159.982 240.900, 162.363 236.500 C 175.799 211.677, 191.529 183.120, 193.463 180.043 C 194.687 178.094, 199.663 169.075, 204.519 160 C 209.375 150.925, 217.631 136.075, 222.866 127 C 228.100 117.925, 233.743 108.025, 235.404 105 C 237.066 101.975, 239.343 97.878, 240.463 95.895 C 241.583 93.913, 244.525 88.597, 247 84.082 C 266.251 48.964, 273.753 36.526, 276.074 35.877 C 278.500 35.199, 278.500 35.199, 276 35.130 C 274.625 35.092, 272.713 35.519, 271.751 36.080 M 569 36 C 567.041 36.627, 566.933 36.797, 568.500 36.782 C 569.600 36.772, 571.850 36.420, 573.500 36 C 576.195 35.314, 576.246 35.235, 574 35.218 C 572.625 35.208, 570.375 35.560, 569 36 M 588.500 36.948 C 571.340 39.831, 560.653 42.615, 545.500 48.146 C 506.375 62.429, 471.736 87.259, 442.818 121.750 C 439.013 126.287, 435.583 130, 435.194 130 C 434.806 130, 428.456 118.188, 421.083 103.750 C 413.711 89.313, 405.571 73.675, 402.996 69 C 400.420 64.325, 395.940 55.866, 393.039 50.201 C 390.138 44.537, 387.503 40.164, 387.183 40.483 C 386.387 41.280, 421.079 110.649, 428.950 124 C 429.437 124.825, 430.374 126.957, 431.033 128.737 C 431.709 130.563, 432.692 131.691, 433.286 131.323 C 433.928 130.926, 434.105 131.284, 433.739 132.238 C 432.819 134.636, 434.086 135.173, 436.670 133.480 C 437.952 132.641, 439 132.256, 439 132.626 C 439 132.996, 441.188 130.419, 443.863 126.899 C 458.370 107.809, 480.144 87.497, 501.368 73.257 C 526.221 56.583, 556.681 44.504, 587 39.302 C 600.359 37.009, 643.231 36.728, 655 38.856 C 675.823 42.620, 693.372 48.135, 709.500 55.984 C 720.014 61.101, 740.098 72.873, 743.500 75.913 C 746.770 78.835, 755.105 84.229, 755.594 83.740 C 756.890 82.444, 753.867 79.378, 745.152 73.151 C 724.281 58.236, 701.311 47.176, 679.417 41.499 C 660.111 36.494, 653.918 35.791, 626 35.436 C 603.748 35.153, 597.737 35.396, 588.500 36.948 M 599.054 43.074 C 570.061 46.355, 536.528 58.157, 511.691 73.822 C 496.129 83.637, 488.104 89.986, 474.037 103.616 C 460.216 117.006, 451.111 127.879, 444.031 139.449 L 439.778 146.397 442.495 151.949 C 445.164 157.404, 475.326 213.378, 481.238 223.846 L 484.257 229.193 488.731 220.346 C 499.638 198.779, 505.900 189.425, 517.178 177.852 C 532.978 161.637, 554.253 148.927, 575.500 143.010 C 608.693 133.766, 649.967 137.854, 676.211 152.984 L 683.264 157.051 686.882 152.791 C 691.792 147.010, 711.731 125.213, 720.538 116 C 732.490 103.497, 748.002 86.531, 747.967 86 C 747.887 84.777, 730.823 73.113, 720.667 67.338 C 701.894 56.664, 679.217 48.619, 656.312 44.507 C 645.599 42.584, 611.031 41.719, 599.054 43.074 M 532.333 47.806 C 530.041 48.738, 527.791 49.875, 527.333 50.334 C 526.875 50.792, 528.975 50.192, 532 49 C 535.025 47.808, 537.688 46.645, 537.917 46.416 C 538.767 45.567, 536.378 46.161, 532.333 47.806 M 1017.083 47.384 C 1018.101 48.321, 1034 55.970, 1034 55.522 C 1034 54.965, 1018.443 47, 1017.356 47 C 1016.977 47, 1016.854 47.173, 1017.083 47.384 M 726 55.352 C 726 55.614, 727.913 56.903, 730.250 58.216 C 732.587 59.528, 735.850 61.420, 737.500 62.420 C 740.500 64.237, 740.500 64.237, 738 62.157 C 735.204 59.830, 726 54.611, 726 55.352 M 507.250 60.105 C 504.363 61.788, 502 63.396, 502 63.678 C 502 64.233, 510.893 59.288, 512.450 57.867 C 514.145 56.320, 512.605 56.983, 507.250 60.105 M 410.030 74.273 C 410.013 74.697, 412.019 78.747, 414.487 83.273 C 416.955 87.798, 418.972 91.050, 418.971 90.500 C 418.967 89.303, 410.073 73.160, 410.030 74.273 M 471.341 84.964 C 467.403 88.227, 463.845 91.442, 463.434 92.108 C 462.781 93.164, 473.957 84.140, 477.964 80.376 C 481.565 76.993, 477.869 79.554, 471.341 84.964 M 224.247 100.250 C 222.839 102.015, 219.859 108, 220.389 108 C 220.631 108, 221.961 105.975, 223.344 103.500 C 225.837 99.040, 226.170 97.840, 224.247 100.250 M 1085 101.550 C 1085 102.952, 1084.287 105.479, 1083.415 107.165 C 1082.275 109.368, 1082.135 110.535, 1082.915 111.315 C 1083.695 112.095, 1084 111.641, 1084 109.700 C 1084 108.215, 1084.525 107, 1085.167 107 C 1085.808 107, 1086.086 106.752, 1085.783 106.450 C 1085.481 106.147, 1085.583 104.347, 1086.011 102.450 C 1086.449 100.508, 1086.398 99, 1085.895 99 C 1085.403 99, 1085 100.147, 1085 101.550 M 1063.809 125.170 C 1056.405 133.775, 1041.410 150.248, 1027.647 164.897 C 1021.241 171.716, 1016 177.647, 1016 178.077 C 1016 179.973, 1056.554 136.189, 1066.918 123.104 C 1071.890 116.825, 1069.785 118.224, 1063.809 125.170 M 705.146 148.795 C 702.041 151.983, 698.375 156.109, 697 157.965 C 695.625 159.821, 693.297 162.613, 691.827 164.170 C 686.722 169.575, 691.193 166.967, 696.832 161.250 C 705.407 152.558, 713.348 143, 711.995 143 C 711.333 143, 708.251 145.608, 705.146 148.795 M 866 149.488 C 859.954 150.898, 851.832 153.818, 853.645 153.930 C 854.274 153.968, 857.649 153.144, 861.145 152.099 C 864.640 151.053, 869.300 149.750, 871.500 149.202 C 873.700 148.655, 874.600 148.206, 873.500 148.206 C 872.400 148.205, 869.025 148.782, 866 149.488 M 583.500 151.131 C 567.015 155.605, 564.220 156.537, 559 159.310 C 549.073 164.584, 542.509 168.289, 542 168.905 C 541.725 169.239, 539.700 170.841, 537.500 172.465 C 527.745 179.668, 510.618 199.852, 505.336 210.370 C 502.047 216.918, 502.489 216.437, 509.815 205.500 C 517.885 193.452, 532.622 177.623, 541.377 171.599 C 555.660 161.772, 572.908 154.787, 593.500 150.490 C 599.500 149.238, 599.500 149.238, 595 149.235 C 592.525 149.234, 587.350 150.087, 583.500 151.131 M 189.247 161.250 C 187.839 163.015, 184.859 169, 185.389 169 C 185.631 169, 186.961 166.975, 188.344 164.500 C 190.837 160.040, 191.170 158.840, 189.247 161.250 M 833.500 161.777 C 831.850 162.724, 830.305 163.620, 830.067 163.767 C 829.828 163.913, 830.053 164.439, 830.567 164.934 C 831.128 165.477, 832.879 164.673, 834.962 162.918 C 838.807 159.678, 838.106 159.131, 833.500 161.777 M 831.963 176.930 C 836.676 185.738, 868.142 194.610, 919 201.471 C 925.875 202.399, 932.625 203.346, 934 203.576 C 946.524 205.669, 951.755 206.761, 967 210.469 C 994.396 217.132, 1013.498 225.574, 1030.500 238.532 C 1045.963 250.316, 1058.266 267.002, 1064.956 285.261 C 1067.277 291.596, 1069.517 302.817, 1068.636 303.697 C 1068.286 304.047, 1068 303.631, 1068 302.774 C 1068 301.916, 1067.258 300.929, 1066.351 300.581 C 1064.875 300.015, 1064.770 300.751, 1065.351 307.625 C 1065.708 311.847, 1066 318.834, 1066 323.151 C 1066 329.282, 1066.312 331, 1067.427 331 C 1068.211 331, 1069.097 330.212, 1069.395 329.250 C 1069.694 328.288, 1069.735 331.613, 1069.488 336.639 C 1069.011 346.320, 1066.073 357.409, 1061.026 368.581 C 1054.421 383.201, 1039.618 401.021, 1027.958 408.389 C 1025.506 409.939, 1020.364 413.185, 1016.530 415.603 C 1007.737 421.150, 1008.918 421.273, 1018.877 415.846 C 1030.544 409.489, 1037.760 404.027, 1046.296 395.089 C 1065.199 375.296, 1074.806 352.416, 1075.726 325 C 1076.274 308.659, 1074.206 296.870, 1068.415 283.333 C 1056.494 255.466, 1036.902 235.203, 1008.632 221.505 C 990.508 212.723, 959.693 204.615, 925 199.499 C 882.343 193.208, 873.764 191.533, 857.500 186.319 C 846.799 182.888, 841.020 180.471, 840 179 C 839.301 177.992, 833.328 175, 832.014 175 C 831.253 175, 831.237 175.575, 831.963 176.930 M 330.083 180.698 C 330.675 182.457, 340.160 202.257, 351.162 224.698 C 362.163 247.139, 371.542 266.449, 372.003 267.608 C 374.090 272.851, 400.598 322.901, 407.903 335.393 C 424.743 364.187, 441.169 383.969, 462 400.542 C 469.766 406.721, 478.659 412.852, 483 415.022 C 486.797 416.919, 485.053 415.480, 478.139 411.012 C 467.422 404.084, 459.514 397.158, 452.643 388.679 C 448.998 384.181, 443.293 377.371, 439.965 373.546 C 435.011 367.852, 424.084 352.624, 421.993 348.500 C 421.714 347.950, 419.593 344.643, 417.279 341.150 C 414.965 337.658, 412.771 333.853, 412.403 332.695 C 412.035 331.536, 410.051 328.094, 407.994 325.044 C 403.154 317.872, 388.889 291.170, 379.226 271.196 C 367.637 247.240, 345.044 203.963, 342.956 201.723 C 341.935 200.627, 340.806 198.395, 340.448 196.763 C 340.090 195.131, 339.055 193.051, 338.148 192.140 C 337.242 191.229, 335.691 188.687, 334.703 186.492 C 333.715 184.296, 332.029 181.375, 330.956 180 C 329.007 177.500, 329.007 177.500, 330.083 180.698 M 451.059 180.176 C 451.026 180.548, 452.828 183.923, 455.062 187.676 C 457.296 191.429, 458.826 193.441, 458.462 192.147 C 458.098 190.853, 456.832 188.321, 455.650 186.521 C 454.467 184.721, 452.964 182.405, 452.309 181.374 C 451.654 180.343, 451.091 179.804, 451.059 180.176 M 159.771 213.250 C 157.583 216.623, 155.621 220.640, 156.718 219.500 C 158.120 218.043, 162.245 211, 161.697 211 C 161.440 211, 160.573 212.012, 159.771 213.250 M 516.196 227.750 C 511.539 234.352, 505.060 250.394, 506.478 251.812 C 506.942 252.275, 509.974 245.331, 510.052 243.628 C 510.080 243.008, 512.012 238.563, 514.345 233.750 C 516.677 228.938, 518.485 225, 518.361 225 C 518.237 225, 517.263 226.238, 516.196 227.750 M 1036.500 234.317 C 1038.700 236.301, 1040.872 237.942, 1041.327 237.962 C 1041.781 237.983, 1040.881 236.977, 1039.327 235.726 C 1034.034 231.469, 1032.489 230.698, 1036.500 234.317 M 144 242 C 142.334 245.300, 141.196 248, 141.471 248 C 141.746 248, 143.334 245.300, 145 242 C 146.666 238.700, 147.804 236, 147.529 236 C 147.254 236, 145.666 238.700, 144 242 M 1049.473 245.792 C 1053.308 249.757, 1056.605 253, 1056.799 253 C 1057.585 253, 1052.193 247.226, 1047.500 243.042 C 1044.011 239.932, 1044.607 240.763, 1049.473 245.792 M 132.500 263 C 131.106 265.750, 130.191 268, 130.466 268 C 130.741 268, 132.106 265.750, 133.500 263 C 134.894 260.250, 135.809 258, 135.534 258 C 135.259 258, 133.894 260.250, 132.500 263 M 142.794 271.750 C 138.644 278.762, 133.550 287.650, 131.475 291.500 C 125.926 301.795, 113.866 323.473, 104.492 340 C 93.231 359.856, 77.356 388.675, 64.901 411.873 C 59.181 422.529, 53.495 432.204, 52.267 433.373 C 51.039 434.543, 50.027 436.063, 50.017 436.750 C 50.008 437.438, 49.438 438.007, 48.750 438.015 C 47.917 438.026, 48 438.354, 49 439 C 49.926 439.599, 74.086 439.975, 112.182 439.985 C 173.864 440, 173.864 440, 175.759 437.250 C 176.801 435.738, 179.594 430.921, 181.964 426.547 C 184.335 422.173, 189.666 412.948, 193.812 406.047 C 201.672 392.963, 217.980 361.410, 217.993 359.261 C 218.005 357.124, 212.628 358.216, 210.250 360.834 C 207.611 363.739, 207.347 362.617, 209.604 358.091 C 210.487 356.323, 211.025 354.691, 210.800 354.466 C 210.352 354.019, 198.806 373.547, 179.740 407 L 167.486 428.500 116.243 428.759 C 88.059 428.902, 65 428.702, 65 428.317 C 65 427.931, 68.678 420.839, 73.173 412.557 C 77.668 404.276, 82.686 395.025, 84.325 392 C 85.964 388.975, 89.866 382, 92.996 376.500 C 96.126 371, 100.854 362.450, 103.501 357.500 C 106.149 352.550, 109.287 346.925, 110.475 345 C 111.663 343.075, 114.820 337.450, 117.491 332.500 C 120.163 327.550, 128.265 312.925, 135.496 300 C 152.706 269.239, 158.221 259, 157.579 259 C 157.290 259, 154.980 262.595, 152.445 266.990 C 148.423 273.963, 147.653 274.795, 146.389 273.532 C 145.126 272.269, 145.319 271.252, 147.908 265.542 C 149.540 261.944, 150.754 259, 150.608 259 C 150.461 259, 146.945 264.738, 142.794 271.750 M 313.488 268.452 C 311.569 271.451, 310 274.122, 310 274.389 C 310 275, 295.002 299.754, 292.633 303.054 C 289.313 307.678, 269.744 338.527, 256.510 360 C 240.276 386.340, 233.832 397.890, 234.227 399.939 C 234.496 401.338, 243.902 401.527, 324.764 401.755 C 374.394 401.896, 415 401.671, 415 401.255 C 415 400.840, 378.438 400.648, 333.750 400.829 C 289.063 401.009, 249.238 400.858, 245.250 400.493 C 236.271 399.671, 236.159 399.091, 242.881 388.321 C 250.995 375.322, 266.562 349.854, 269.971 344 C 271.733 340.975, 274.909 335.800, 277.028 332.500 C 283.784 321.979, 297 300.075, 297 299.397 C 297 299.037, 299.840 294.189, 303.312 288.622 C 310.508 277.081, 318.313 263, 317.513 263 C 317.217 263, 315.406 265.453, 313.488 268.452 M 323.211 265.795 C 321.315 268.552, 299.393 305.399, 283.525 332.500 C 278.695 340.750, 269.401 356.528, 262.872 367.562 C 256.342 378.597, 251 387.858, 251 388.142 C 251 388.427, 284.975 388.624, 326.499 388.580 C 372.495 388.531, 401.999 388.135, 401.999 387.567 C 402 387.054, 397.786 379.854, 392.635 371.567 C 381.921 354.330, 337.302 280.868, 331.419 270.780 C 329.263 267.084, 326.954 263.842, 326.286 263.575 C 325.618 263.308, 324.235 264.308, 323.211 265.795 M 1067.842 269.322 C 1070.025 273.074, 1072.157 276.449, 1072.581 276.822 C 1073.879 277.964, 1066.890 265.602, 1065.333 264 C 1064.530 263.175, 1065.660 265.570, 1067.842 269.322 M 516.441 271.777 C 518.566 275.729, 521.986 280.627, 521.993 279.730 C 521.997 279.307, 520.901 277.219, 519.557 275.090 C 518.213 272.961, 517.332 271.001, 517.600 270.733 C 517.867 270.466, 517.387 269.979, 516.531 269.650 C 515.142 269.117, 515.132 269.344, 516.441 271.777 M 120.716 284.250 C 115.945 292.879, 114.587 295.672, 115.732 294.500 C 117.077 293.123, 125.256 278, 124.656 278 C 124.390 278, 122.617 280.813, 120.716 284.250 M 1077.653 289 C 1078.001 290.375, 1078.903 293.075, 1079.658 295 C 1080.832 297.995, 1080.948 298.083, 1080.461 295.610 C 1080.148 294.021, 1079.246 291.321, 1078.456 289.610 C 1077.376 287.271, 1077.177 287.120, 1077.653 289 M 268.748 303.250 C 261.811 315.418, 261.740 315.558, 263.703 313.177 C 265.930 310.477, 272.366 299, 271.653 299 C 271.388 299, 270.081 300.913, 268.748 303.250 M 110.763 302.250 C 108.610 305.554, 105.616 311.664, 106.721 310.500 C 108.027 309.125, 113.186 300, 112.657 300 C 112.422 300, 111.570 301.012, 110.763 302.250 M 671.474 311.027 C 667.227 315.460, 662.804 317.823, 660.466 316.909 C 659.327 316.464, 659.096 316.111, 659.917 316.070 C 660.696 316.032, 661.081 315.748, 660.773 315.440 C 660.465 315.132, 653.974 318.005, 646.348 321.826 C 629.289 330.371, 621.545 332.741, 606.897 333.896 C 586.132 335.534, 567.147 332.345, 555.770 325.307 C 553.718 324.038, 551.581 323, 551.020 323 C 550.459 323, 550 322.633, 550 322.185 C 550 321.737, 548.313 320.597, 546.250 319.652 C 542.500 317.935, 542.500 317.935, 545 320.030 C 547.500 322.125, 547.500 322.125, 545 321.500 C 542.500 320.875, 542.500 320.875, 545 322.915 C 548.199 325.526, 546.330 325.605, 543 323 C 541.625 321.924, 539.993 321.034, 539.372 321.022 C 538.752 321.010, 537.685 320.325, 537 319.500 C 536.315 318.675, 535.298 318, 534.740 318 C 533.097 318, 541.004 323.904, 547.500 327.527 C 550.800 329.367, 557.008 332.221, 561.296 333.867 C 574.611 338.980, 582.018 340.269, 598 340.258 C 610.132 340.249, 614.233 339.828, 623.112 337.676 C 642.224 333.046, 659.844 323.885, 670.462 313.059 C 673.192 310.277, 675.188 308, 674.899 308 C 674.611 308, 673.069 309.362, 671.474 311.027 M 560.533 312.748 C 555.601 312.933, 551.273 313.558, 550.915 314.137 C 550.557 314.717, 548.633 315.237, 546.639 315.293 C 543.014 315.396, 543.014 315.396, 549.759 319.137 C 553.469 321.194, 561.003 324.093, 566.502 325.579 C 574.991 327.873, 579.066 328.347, 593.500 328.723 C 607.759 329.095, 612.347 328.829, 621.954 327.078 C 628.253 325.929, 635.003 324.162, 636.954 323.150 C 638.904 322.139, 642.750 320.565, 645.500 319.652 C 648.250 318.740, 652.525 316.647, 655 315.001 L 659.500 312.009 614.500 312.210 C 589.750 312.321, 565.465 312.563, 560.533 312.748 M 1085 332 C 1085 336.033, 1085.189 339.145, 1085.419 338.914 C 1086.150 338.183, 1086.378 326.044, 1085.674 325.341 C 1085.303 324.970, 1085 327.967, 1085 332 M 891.250 336.735 C 893.862 336.941, 898.138 336.941, 900.750 336.735 C 903.362 336.529, 901.225 336.360, 896 336.360 C 890.775 336.360, 888.638 336.529, 891.250 336.735 M 78.763 359.250 C 76.610 362.554, 73.616 368.664, 74.721 367.500 C 76.027 366.125, 81.186 357, 80.657 357 C 80.422 357, 79.570 358.012, 78.763 359.250 M 1073.737 372.737 C 1072.225 376.358, 1071.158 379.491, 1071.365 379.699 C 1071.573 379.906, 1072.995 377.129, 1074.526 373.526 C 1076.057 369.924, 1077.125 366.791, 1076.898 366.565 C 1076.671 366.338, 1075.249 369.115, 1073.737 372.737 M 1066.698 387.250 C 1065.327 389.587, 1062.134 394.166, 1059.603 397.425 C 1057.071 400.683, 1055 403.802, 1055 404.355 C 1055 405.851, 1064.073 393.812, 1067.308 388.024 C 1070.713 381.931, 1070.199 381.279, 1066.698 387.250 M 411.319 391.455 C 414.478 397.107, 414.481 397.122, 412.336 396.299 C 411.217 395.869, 410.909 396.043, 411.395 396.830 C 412.291 398.279, 415 398.377, 415 396.960 C 415 395.326, 411.159 388.216, 409.833 387.397 C 409.176 386.991, 409.844 388.817, 411.319 391.455 M 55.706 401.250 C 50.944 409.837, 47.585 416.704, 48.736 415.500 C 50.019 414.158, 60.191 395, 59.621 395 C 59.374 395, 57.612 397.813, 55.706 401.250 M 717.485 404.102 C 711.405 407.310, 710.780 408.575, 716.750 405.591 C 719.638 404.147, 722 402.749, 722 402.483 C 722 401.756, 721.789 401.832, 717.485 404.102 M 1044.998 413.318 C 1040.322 417.268, 1035.147 421.560, 1033.498 422.855 L 1030.500 425.211 1033.500 423.463 C 1038.876 420.330, 1056.015 405.733, 1053.924 406.068 C 1053.691 406.105, 1049.674 409.368, 1044.998 413.318 M 743 411.385 C 743 413.045, 767.064 425.386, 772.500 426.514 C 775.353 427.106, 775.405 427.059, 773.560 425.569 C 772.493 424.707, 769.129 423.070, 766.086 421.931 C 763.042 420.792, 756.894 417.867, 752.424 415.430 C 744.724 411.232, 743 410.493, 743 411.385 M 696.500 415.578 C 694.300 416.892, 692.855 417.975, 693.290 417.984 C 694.385 418.006, 702 414.069, 702 413.480 C 702 412.606, 700.546 413.161, 696.500 415.578 M 1023.750 428.064 C 1020.587 429.696, 1018 431.256, 1018 431.530 C 1018 431.805, 1020.700 430.666, 1024 429 C 1027.300 427.334, 1030 425.753, 1030 425.486 C 1030 424.819, 1030.185 424.742, 1023.750 428.064 M 39.450 431.099 C 38.028 433.904, 37.033 436.367, 37.238 436.571 C 37.443 436.776, 38.818 434.482, 40.295 431.472 C 41.771 428.462, 42.766 426, 42.506 426 C 42.246 426, 40.871 428.295, 39.450 431.099 M 422.250 426.716 C 423.762 426.945, 426.238 426.945, 427.750 426.716 C 429.262 426.487, 428.025 426.300, 425 426.300 C 421.975 426.300, 420.738 426.487, 422.250 426.716 M 984.220 429.248 C 981.315 430.361, 979.101 431.435, 979.300 431.633 C 979.801 432.134, 989.285 428.931, 990.450 427.867 C 991.856 426.584, 990.226 426.945, 984.220 429.248 M 438.559 432.095 C 438.996 432.803, 439.466 435.659, 439.602 438.441 C 439.738 441.224, 440.114 448.869, 440.438 455.430 C 440.762 461.992, 441.268 467.601, 441.563 467.896 C 441.858 468.191, 441.964 460.128, 441.799 449.978 C 441.522 432.883, 441.363 431.499, 439.632 431.166 C 438.316 430.914, 437.999 431.189, 438.559 432.095 M 562.659 432.750 C 562.406 433.163, 570.367 433.511, 580.350 433.525 C 590.332 433.538, 597.150 433.254, 595.500 432.893 C 591.263 431.966, 563.214 431.844, 562.659 432.750 M 778.489 435.250 C 777.606 440.021, 778.359 509.695, 779.304 510.639 C 779.747 511.081, 780.527 510.780, 781.039 509.971 C 781.724 508.888, 782.004 509.424, 782.100 512 C 782.230 515.500, 782.230 515.500, 783.182 511.500 C 785.140 503.271, 785.233 500.010, 783.607 496.583 C 782.723 494.721, 782 492.083, 782 490.721 C 782 489.359, 781.304 486.578, 780.453 484.541 C 779.157 481.440, 778.981 477.067, 779.369 457.669 C 779.624 444.926, 779.870 434.387, 779.916 434.250 C 779.962 434.113, 790.125 434, 802.500 434 L 825 434 825.112 438.750 C 825.174 441.363, 825.330 447.100, 825.460 451.500 C 825.589 455.900, 825.813 481.043, 825.957 507.373 C 826.173 546.829, 825.980 555.408, 824.859 556.165 C 824.073 556.697, 807.590 556.961, 785.787 556.792 C 765.045 556.631, 748.845 556.806, 749.787 557.180 C 750.729 557.554, 768.207 557.891, 788.628 557.930 C 820.957 557.991, 825.921 557.800, 827.038 556.454 C 828.068 555.213, 828.185 543.036, 827.630 494.770 C 827.159 453.733, 826.592 434.214, 825.847 433.316 C 825.003 432.298, 819.578 432, 801.923 432 C 779.091 432, 779.091 432, 778.489 435.250 M 971 433.469 C 968.525 434.201, 962.976 435.558, 958.669 436.486 C 954.363 437.413, 951.031 438.364, 951.265 438.599 C 951.925 439.258, 965.803 436.362, 972.500 434.166 C 979.217 431.965, 978.002 431.400, 971 433.469 M 1008.500 435.595 C 1005.750 436.931, 1004.625 437.736, 1006 437.385 C 1008.854 436.655, 1016.017 433.068, 1014.500 433.127 C 1013.950 433.149, 1011.250 434.259, 1008.500 435.595 M 348 453.395 L 348 471.790 341.750 469.721 C 336.633 468.026, 332.873 467.640, 321 467.592 C 308.764 467.543, 305.407 467.876, 299.500 469.725 C 278.149 476.410, 267.654 492.782, 270.963 514.246 C 271.578 518.236, 273.052 523.513, 274.238 525.974 C 278.801 535.437, 290.236 543.454, 302.932 546.090 C 311.526 547.874, 333.071 546.732, 340.430 544.103 C 343.692 542.937, 347.179 541.243, 348.180 540.337 C 349.882 538.797, 350 538.819, 350 540.690 C 350 541.790, 350.823 543.435, 351.829 544.345 C 353.343 545.715, 356.011 546, 367.329 546 L 381 546 381 490.500 L 381 435 364.500 435 L 348 435 348 453.395 M 400 447.500 L 400 460 417.500 460 L 435 460 435 447.500 L 435 435 417.500 435 L 400 435 400 447.500 M 449.385 447 C 449.385 453.875, 449.545 456.688, 449.740 453.250 C 449.936 449.813, 449.936 444.188, 449.740 440.750 C 449.545 437.313, 449.385 440.125, 449.385 447 M 601.941 448.748 C 602.410 462.335, 602.767 461.498, 603.220 445.749 C 603.393 439.729, 603.117 435.998, 602.500 435.997 C 601.863 435.997, 601.660 440.620, 601.941 448.748 M 339.015 449.583 C 339.025 457.184, 339.362 460.976, 339.946 460.053 C 340.787 458.724, 340.292 439.036, 339.393 438.083 C 339.177 437.854, 339.007 443.029, 339.015 449.583 M 563 449 L 563 460 580 460 L 597 460 597 449 L 597 438 580 438 L 563 438 563 449 M 786 491.975 L 786 546 802.509 546 L 819.017 546 818.759 492.250 L 818.500 438.500 802.250 438.225 L 786 437.950 786 491.975 M 611.250 439.636 C 607.698 441.144, 612.085 441.500, 634.250 441.500 L 658.500 441.500 659.018 450 C 659.433 456.800, 659.709 457.932, 660.399 455.661 C 661.455 452.186, 660.526 442.127, 659.010 440.608 C 657.873 439.469, 613.756 438.571, 611.250 439.636 M 618.667 445.667 C 618.300 446.033, 618 451.658, 618 458.167 L 618 470 611.500 470 L 605 470 605 480.500 L 605 491 611.410 491 L 617.819 491 618.160 510.750 C 618.471 528.814, 618.692 530.889, 620.747 535.060 C 625.344 544.387, 632.264 547.004, 652.285 546.989 C 660.103 546.983, 668.188 546.699, 670.250 546.358 C 674 545.738, 674 545.738, 674 536.350 C 674 526.962, 674 526.962, 671.250 527.726 C 669.737 528.147, 665.874 528.442, 662.665 528.382 C 658.111 528.298, 656.354 527.799, 654.665 526.112 C 652.650 524.099, 652.478 522.810, 652.183 507.475 L 651.865 491 663.983 491 L 676.101 491 675.916 481.843 C 675.814 476.807, 675.543 471.967, 675.313 471.088 C 674.953 469.713, 673.292 469.540, 663.447 469.852 L 652 470.216 652 457.608 L 652 445 635.667 445 C 626.683 445, 619.033 445.300, 618.667 445.667 M 311.264 457.718 C 312.784 457.947, 315.034 457.941, 316.264 457.704 C 317.494 457.467, 316.250 457.279, 313.500 457.286 C 310.750 457.294, 309.744 457.488, 311.264 457.718 M 723.750 458.732 C 726.087 458.943, 729.913 458.943, 732.250 458.732 C 734.587 458.522, 732.675 458.349, 728 458.349 C 723.325 458.349, 721.413 458.522, 723.750 458.732 M 667 459.776 C 667 460.203, 668.913 460.405, 671.250 460.224 C 678.255 459.681, 678.853 459.239, 672.750 459.116 C 669.587 459.052, 667 459.349, 667 459.776 M 681.500 461.167 C 682.600 461.775, 684.537 463.214, 685.806 464.363 C 687.356 465.769, 687.919 465.952, 687.524 464.924 C 686.935 463.387, 681.926 459.974, 680.346 460.030 C 679.881 460.047, 680.400 460.559, 681.500 461.167 M 308.760 462 C 301.976 462.838, 291.480 465.813, 292.325 466.658 C 292.574 466.908, 295.641 466.299, 299.139 465.306 C 304.147 463.884, 308.904 463.517, 321.500 463.580 C 330.300 463.624, 336.271 463.328, 334.768 462.921 C 330.026 461.639, 315.765 461.133, 308.760 462 M 469.344 464.021 C 461.950 465.933, 454.354 469.436, 450 472.942 C 448.625 474.050, 448.007 474.966, 448.628 474.978 C 449.248 474.990, 450.238 474.418, 450.828 473.708 C 452.268 471.972, 462.208 467.495, 469 465.524 C 472.025 464.646, 479.450 463.557, 485.500 463.104 L 496.500 462.282 486.500 462.227 C 479.853 462.190, 474.100 462.792, 469.344 464.021 M 283.250 464.973 C 280.913 466.034, 279 467.124, 279 467.395 C 279 467.850, 287.975 464.207, 288.917 463.370 C 289.999 462.409, 287.082 463.234, 283.250 464.973 M 386.805 464.915 C 385.937 465.928, 384.638 466.954, 383.919 467.194 C 382.108 467.797, 382.277 473.869, 384.371 483.500 C 387.058 495.851, 387.107 496.120, 387.876 502.500 C 388.599 508.500, 388.599 508.500, 389.365 498.453 C 390.345 485.613, 391.492 483.691, 392.522 493.164 C 392.961 497.199, 393.483 499.600, 393.682 498.500 C 394.344 494.844, 397.341 484.515, 398.034 483.500 C 398.409 482.950, 398.809 479.522, 398.922 475.882 C 399.084 470.669, 398.796 469.136, 397.564 468.663 C 396.704 468.333, 396 467.211, 396 466.169 C 396 464.701, 395.388 464.342, 393.276 464.574 C 391.778 464.739, 390.064 464.468, 389.467 463.973 C 388.783 463.405, 387.799 463.753, 386.805 464.915 M 542 465 C 542 465.550, 543.377 466, 545.059 466 C 546.844 466, 547.861 465.583, 547.500 465 C 547.160 464.450, 545.784 464, 544.441 464 C 543.098 464, 542 464.450, 542 465 M 583.264 464.718 C 584.784 464.947, 587.034 464.941, 588.264 464.704 C 589.494 464.467, 588.250 464.279, 585.500 464.286 C 582.750 464.294, 581.744 464.488, 583.264 464.718 M 477.156 468.011 C 469.767 469.046, 459.916 473.379, 454.861 477.817 C 452.911 479.529, 449.783 483.758, 447.908 487.215 C 444.593 493.329, 444.500 493.812, 444.500 505 C 444.500 515.294, 444.772 517.077, 447.092 522 C 452.104 532.636, 462.933 540.312, 476.769 543.034 C 480.516 543.772, 487.100 544.064, 493.254 543.767 C 504.235 543.236, 510.980 541.264, 518.236 536.463 L 522.211 533.832 521.490 539.166 C 520.615 545.645, 519.925 547.044, 515.956 550.384 C 510.944 554.601, 503.050 556.437, 490 556.422 C 477.372 556.407, 467.460 554.111, 459.250 549.300 L 455 546.810 455 556.299 L 455 565.787 461.250 568.280 C 471.112 572.212, 478.333 573.281, 495 573.274 C 523.772 573.263, 540.529 566.352, 547.114 551.779 C 549.478 546.549, 549.503 546.142, 549.794 507.750 L 550.088 469 536.044 469 C 522 469, 522 469, 522 472.449 L 522 475.898 516.118 472.980 C 512.883 471.375, 508.138 469.591, 505.574 469.017 C 498.778 467.494, 484.463 466.987, 477.156 468.011 M 712.971 468.003 C 704.736 468.793, 703.264 469.131, 694.750 472.183 L 689 474.244 689 484.122 C 689 489.555, 689.346 494, 689.769 494 C 690.192 494, 693.847 492.610, 697.891 490.911 C 706.218 487.412, 718.849 485.753, 729.863 486.712 C 741.422 487.719, 745.932 490.374, 747.529 497.113 C 748.148 499.726, 748.148 499.726, 727.824 500.292 C 715.564 500.634, 705.318 501.415, 702 502.261 C 693.968 504.309, 686.520 508.452, 683.312 512.658 C 680.796 515.957, 680.500 517.149, 680.500 523.995 C 680.500 530.441, 680.880 532.201, 682.910 535.163 C 688.649 543.540, 697.728 546.928, 714.500 546.953 C 728.004 546.973, 737.032 545.271, 743.957 541.400 C 746.434 540.016, 748.589 539.247, 748.746 539.692 C 748.903 540.136, 749.599 541.625, 750.293 543 C 751.518 545.426, 751.904 545.508, 763.278 545.782 L 775 546.063 775 522.199 C 775 508.022, 774.527 495.979, 773.835 492.533 C 771.475 480.783, 762.751 472.686, 749.134 469.608 C 741.142 467.801, 723.319 467.010, 712.971 468.003 M 280.500 470.838 C 275.729 473.750, 267.398 483.489, 264.323 489.750 C 261.605 495.286, 261.500 496.061, 261.500 510.554 C 261.500 525.607, 261.500 525.607, 265.274 533.241 C 274.206 551.309, 290.255 559.023, 318.838 558.984 C 329.643 558.970, 341.135 557.286, 342.796 555.473 C 343.183 555.050, 342.375 554.995, 341 555.349 C 327.780 558.755, 303.370 558.077, 290.812 553.955 C 278.728 549.988, 267.628 538.619, 264.426 526.928 C 262.423 519.614, 262.424 498.885, 264.428 493.205 C 267.572 484.292, 273.770 476.391, 282 470.802 C 285.362 468.519, 284.257 468.546, 280.500 470.838 M 400.375 496.250 C 400.645 511.238, 400.897 528.675, 400.935 535 L 401.003 546.500 417.751 546.385 L 434.500 546.270 434.762 507.635 L 435.023 469 417.453 469 L 399.883 469 400.375 496.250 M 564 507.750 L 564.001 546.500 580.001 546.500 L 596 546.500 596 507.750 L 596 469 580 469 L 564 469 564 507.750 M 558 471.892 C 558 473.178, 557.561 473.847, 556.961 473.476 C 556.264 473.045, 556.134 474.428, 556.566 477.667 C 556.920 480.325, 557.328 482.628, 557.472 482.784 C 557.616 482.940, 558.047 480.305, 558.429 476.929 C 558.811 473.552, 558.870 470.537, 558.562 470.228 C 558.253 469.919, 558 470.668, 558 471.892 M 319 488.876 C 310.739 490.685, 305.327 495.494, 303.513 502.638 C 301.067 512.274, 305.240 521.399, 313.892 525.333 C 320.675 528.418, 333.749 528.336, 340.212 525.168 C 347.247 521.720, 349.504 517.438, 349.363 507.807 C 349.223 498.244, 347.273 494.398, 340.983 491.273 C 336.043 488.819, 324.839 487.597, 319 488.876 M 487.536 489.403 C 470.858 494.095, 471.450 517.226, 488.370 521.964 C 494.909 523.794, 506.533 522.889, 512.295 520.099 C 518.360 517.163, 521.466 511.204, 520.761 503.860 C 520.161 497.616, 517.710 494.159, 511.769 491.178 C 505.910 488.238, 494.618 487.411, 487.536 489.403 M 326.569 492.888 C 325.809 494.119, 331.661 494.858, 333.227 493.729 C 334.137 493.073, 334.011 492.968, 332.782 493.362 C 331.837 493.665, 330.798 493.482, 330.473 492.956 C 329.730 491.753, 327.297 491.711, 326.569 492.888 M 337.992 500.491 C 338.672 501.310, 339.846 503.673, 340.600 505.741 L 341.970 509.500 341.790 505.250 C 341.690 502.913, 341.134 500.993, 340.554 500.985 C 339.975 500.976, 340.175 500.533, 341 500 C 342.160 499.250, 341.850 499.027, 339.628 499.015 C 337.195 499.002, 336.945 499.228, 337.992 500.491 M 343.855 504.935 C 343.181 506.958, 344.079 512, 345.113 512 C 346.177 512, 346.162 508.276, 345.088 505.526 C 344.533 504.105, 344.187 503.940, 343.855 504.935 M 255.320 513 C 255.320 516.575, 255.502 518.038, 255.723 516.250 C 255.945 514.462, 255.945 511.538, 255.723 509.750 C 255.502 507.962, 255.320 509.425, 255.320 513 M 720.184 516.991 C 710.173 518.127, 705.282 523.232, 710.062 527.555 C 711.922 529.237, 713.722 529.500, 723.357 529.500 C 738.805 529.500, 745.791 526.720, 747.494 519.896 C 748.111 517.424, 747.904 517.259, 743.432 516.646 C 737.806 515.875, 728.844 516.008, 720.184 516.991 M 602.189 549.275 C 602.026 554.255, 601.690 555.167, 599.750 555.901 C 598.513 556.369, 588.794 556.695, 578.154 556.626 C 567.514 556.557, 558.600 556.837, 558.345 557.250 C 558.090 557.663, 567.823 558, 579.972 558 C 597.691 558, 602.166 557.730, 602.585 556.638 C 602.873 555.889, 602.944 552.626, 602.743 549.388 L 602.378 543.500 602.189 549.275 M 614 547.422 C 614 549.974, 621.949 555.784, 627.338 557.171 C 634.439 558.999, 671.818 559.009, 677.851 557.184 C 683.451 555.491, 682.856 554.990, 676.500 556.048 C 673.750 556.506, 662.664 556.908, 651.865 556.940 C 628.923 557.010, 623.969 555.969, 617.776 549.776 C 615.615 547.615, 614 546.608, 614 547.422 M 684.203 551.109 C 684.992 553.475, 693.249 556.914, 701 558.106 C 710.711 559.598, 734.800 558.571, 739.298 556.473 C 741.529 555.432, 741.742 555.181, 740 555.645 C 738.625 556.011, 729.300 556.501, 719.278 556.734 C 699.622 557.191, 692.643 556.141, 686.626 551.821 C 684.828 550.529, 683.921 550.263, 684.203 551.109 M 349.998 557.250 C 349.999 557.663, 358.438 557.912, 368.750 557.804 C 387.503 557.608, 385.287 557.253, 362.248 556.761 C 355.510 556.618, 349.997 556.837, 349.998 557.250 M 402.191 557.747 C 409.171 557.918, 420.871 557.919, 428.191 557.748 C 435.511 557.577, 429.800 557.436, 415.500 557.436 C 401.200 557.435, 395.211 557.575, 402.191 557.747 M 549.937 564.845 C 536.927 578.673, 512.257 585.398, 483 583.092 C 464.413 581.627, 453.946 577.663, 450.361 570.731 C 449.531 569.127, 448.585 568.082, 448.258 568.409 C 447.097 569.569, 450.513 574.257, 454.537 577.026 C 462.723 582.658, 471.839 584.541, 492.500 584.870 C 512.338 585.186, 524.693 582.789, 537.866 576.069 C 543.500 573.194, 551.260 566.696, 553.307 563.140 C 554.300 561.413, 554.974 560, 554.804 560 C 554.634 560, 552.444 562.180, 549.937 564.845" fill="#fff"/>
  </g>
  <g id="digital-mask">
    <text x="252" y="562" textLength="576" lengthAdjust="spacingAndGlyphs" font-family="'Arial Rounded MT Bold', 'Arial Black', Impact, 'Segoe UI Black', sans-serif" font-size="140" font-weight="900" letter-spacing="1.5" fill="#fff" stroke="#fff" stroke-width="50" stroke-linejoin="round" paint-order="stroke fill">digital</text>
  </g>
</svg>
